<?xml version="1.0" encoding="UTF-8" standalone="no"?>
<!-- Created with Inkscape (http://www.inkscape.org/) -->
<svg
   xmlns:dc="http://purl.org/dc/elements/1.1/"
   xmlns:cc="http://creativecommons.org/ns#"
   xmlns:rdf="http://www.w3.org/1999/02/22-rdf-syntax-ns#"
   xmlns:svg="http://www.w3.org/2000/svg"
   xmlns="http://www.w3.org/2000/svg"
   xmlns:xlink="http://www.w3.org/1999/xlink"
   xmlns:sodipodi="http://sodipodi.sourceforge.net/DTD/sodipodi-0.dtd"
   xmlns:inkscape="http://www.inkscape.org/namespaces/inkscape"
   width="500"
   height="300"
   id="svg3527"
   sodipodi:version="0.32"
   inkscape:version="0.46"
   version="1.0"
   sodipodi:docbase="/home/phm/SVG/flisol_2008/fuentes"
   sodipodi:docname="logo_flisol.svg"
   inkscape:output_extension="org.inkscape.output.svg.inkscape">
  <defs
     id="defs3529">
    <inkscape:perspective
       sodipodi:type="inkscape:persp3d"
       inkscape:vp_x="0 : 150 : 1"
       inkscape:vp_y="0 : 1000 : 0"
       inkscape:vp_z="500 : 150 : 1"
       inkscape:persp3d-origin="250 : 100 : 1"
       id="perspective67" />
    <linearGradient
       id="linearGradient931">
      <stop
         offset="0"
         id="stop932"
         style="stop-color:#fac732;stop-opacity:1;" />
      <stop
         offset="1"
         id="stop933"
         style="stop-color:#ff8d2d;stop-opacity:1;" />
    </linearGradient>
    <radialGradient
       inkscape:collect="always"
       id="radialGradient5976"
       r="432.04001"
       gradientTransform="matrix(1,0,0,1.0218136,-427.10868,-356.93759)"
       cx="-13397.574"
       cy="-313.87469"
       gradientUnits="userSpaceOnUse"
       xlink:href="#linearGradient931"
       fy="-313.87469"
       fx="-13397.574" />
    <filter
       inkscape:collect="always"
       id="filter16020">
      <feGaussianBlur
         inkscape:collect="always"
         id="feGaussianBlur16022"
         stdDeviation="12.956781" />
    </filter>
    <linearGradient
       inkscape:collect="always"
       id="linearGradient10592">
      <stop
         offset="0"
         id="stop10594"
         style="stop-color:#000000;stop-opacity:1;" />
      <stop
         offset="1"
         id="stop10596"
         style="stop-color:#000000;stop-opacity:0;" />
    </linearGradient>
    <linearGradient
       inkscape:collect="always"
       id="linearGradient5974"
       x1="201.06781"
       y1="-160.52704"
       gradientTransform="matrix(0.8941887,0,0,0.8941887,-27.290417,342.37297)"
       x2="205.96875"
       gradientUnits="userSpaceOnUse"
       xlink:href="#linearGradient10592"
       y2="-113.55305" />
    <linearGradient
       id="linearGradient14205">
      <stop
         offset="0"
         id="stop14207"
         style="stop-color:#dbb600;stop-opacity:1;" />
      <stop
         offset="0.5"
         id="stop14213"
         style="stop-color:#ffffff;stop-opacity:0.49803922;" />
      <stop
         offset="1"
         id="stop14209"
         style="stop-color:#eafd00;stop-opacity:0;" />
    </linearGradient>
    <linearGradient
       inkscape:collect="always"
       id="linearGradient5972"
       x1="85.883392"
       y1="-111.72987"
       gradientTransform="translate(68.032186,354.64996)"
       x2="84.469963"
       gradientUnits="userSpaceOnUse"
       xlink:href="#linearGradient14205"
       y2="-155.81845" />
    <linearGradient
       id="linearGradient950">
      <stop
         offset="0"
         id="stop951"
         style="stop-color:#545a3a;stop-opacity:0;" />
      <stop
         offset="1"
         id="stop952"
         style="stop-color:#e56d00;stop-opacity:1;" />
    </linearGradient>
    <linearGradient
       inkscape:collect="always"
       id="linearGradient5970"
       x1="392.56433"
       y1="154.80325"
       gradientTransform="scale(0.9857524,1.0144536)"
       x2="721.79407"
       gradientUnits="userSpaceOnUse"
       xlink:href="#linearGradient950"
       y2="154.80325" />
    <filter
       inkscape:collect="always"
       id="filter5366">
      <feGaussianBlur
         inkscape:collect="always"
         id="feGaussianBlur5368"
         stdDeviation="2.7286441" />
    </filter>
    <filter
       inkscape:collect="always"
       id="filter18841">
      <feGaussianBlur
         inkscape:collect="always"
         id="feGaussianBlur18843"
         stdDeviation="1.6463182" />
    </filter>
    <linearGradient
       id="linearGradient1018">
      <stop
         offset="0"
         id="stop1019"
         style="stop-color:#ffffff;stop-opacity:0.30980393;" />
      <stop
         offset="1"
         id="stop1020"
         style="stop-color:#646464;stop-opacity:1;" />
    </linearGradient>
    <linearGradient
       inkscape:collect="always"
       id="linearGradient5968"
       x1="392.56433"
       y1="154.80325"
       gradientTransform="scale(0.9857524,1.0144536)"
       x2="712.17444"
       gradientUnits="userSpaceOnUse"
       xlink:href="#linearGradient1018"
       y2="154.80325" />
    <linearGradient
       id="linearGradient936">
      <stop
         offset="0"
         id="stop937"
         style="stop-color:#ae4d5a;stop-opacity:1;" />
      <stop
         offset="1"
         id="stop938"
         style="stop-color:#ff8d2d;stop-opacity:1;" />
    </linearGradient>
    <radialGradient
       inkscape:collect="always"
       id="radialGradient5966"
       r="23.131397"
       gradientTransform="matrix(0.4849966,3.5197131e-8,-3.5197101e-8,0.4849961,-253.04239,17.096818)"
       cx="-491.34122"
       cy="33.197422"
       gradientUnits="userSpaceOnUse"
       xlink:href="#linearGradient936"
       fy="33.197422"
       fx="-491.34122" />
    <filter
       inkscape:collect="always"
       id="filter10567">
      <feGaussianBlur
         inkscape:collect="always"
         id="feGaussianBlur10569"
         stdDeviation="0.51295436" />
    </filter>
    <linearGradient
       inkscape:collect="always"
       xlink:href="#linearGradient14205"
       id="linearGradient3606"
       gradientUnits="userSpaceOnUse"
       gradientTransform="matrix(2.7980077,0,0,2.7980077,-36.22429,525.82352)"
       x1="85.883392"
       y1="-111.72987"
       x2="84.469963"
       y2="-155.81845" />
    <linearGradient
       inkscape:collect="always"
       xlink:href="#linearGradient10592"
       id="linearGradient3608"
       gradientUnits="userSpaceOnUse"
       gradientTransform="matrix(2.5019469,0,0,2.5019469,-302.93767,491.47241)"
       x1="201.06781"
       y1="-160.52704"
       x2="205.96875"
       y2="-113.55305" />
  </defs>
  <sodipodi:namedview
     id="base"
     pagecolor="#ffffff"
     bordercolor="#666666"
     borderopacity="1.0"
     inkscape:pageopacity="0.0"
     inkscape:pageshadow="2"
     inkscape:zoom="1.0416667"
     inkscape:cx="251.42857"
     inkscape:cy="145.71429"
     inkscape:document-units="px"
     inkscape:current-layer="layer1"
     width="500px"
     height="300px"
     inkscape:window-width="871"
     inkscape:window-height="667"
     inkscape:window-x="66"
     inkscape:window-y="71"
     showgrid="false" />
  <metadata
     id="metadata3532">
    <rdf:RDF>
      <cc:Work
         rdf:about="">
        <dc:format>image/svg+xml</dc:format>
        <dc:type
           rdf:resource="http://purl.org/dc/dcmitype/StillImage" />
      </cc:Work>
    </rdf:RDF>
  </metadata>
  <g
     inkscape:label="Capa 1"
     inkscape:groupmode="layer"
     id="layer1">
    <path
       d="M 177.74489,-167.08151 C 175.27247,-167.08151 173.24489,-165.08519 173.24489,-162.61276 C 173.24489,-160.14034 175.27247,-158.14401 177.74489,-158.14401 C 180.21731,-158.14401 182.21364,-160.14034 182.21364,-162.61276 C 182.21364,-165.08518 180.21731,-167.08151 177.74489,-167.08151 z M 149.11989,-160.30026 C 147.78801,-160.30026 146.53456,-160.01549 145.33864,-159.39401 C 144.16986,-158.77254 143.14187,-157.91084 142.24489,-156.83151 C 141.34795,-155.7521 140.63635,-154.48947 140.11989,-153.05026 C 139.6035,-151.64377 139.33864,-150.15302 139.33864,-148.55026 L 139.33864,-148.45651 L 139.40114,-148.45651 L 139.40114,-146.73776 L 136.77614,-146.73776 C 135.90424,-146.73777 135.16023,-146.34458 134.52614,-145.58151 C 133.91844,-144.85028 133.61989,-143.97453 133.61989,-142.92526 C 133.61989,-141.87607 133.91844,-140.96957 134.52614,-140.20651 C 135.16023,-139.47527 135.90424,-139.11276 136.77614,-139.11276 L 139.40114,-139.11276 L 139.40114,-136.92526 L 139.33864,-136.92526 L 139.33864,-125.23776 L 139.33864,-121.48776 C 139.33864,-120.24482 139.65507,-119.29966 140.30739,-118.61276 C 140.95973,-117.92588 141.71884,-117.58151 142.58864,-117.58151 C 143.4856,-117.58152 144.24475,-117.92587 144.86989,-118.61276 C 145.52223,-119.29967 145.86989,-120.24481 145.86989,-121.48776 L 145.86989,-125.05026 L 145.86989,-136.86276 L 145.90114,-136.86276 L 145.90114,-139.01901 L 150.24489,-139.01901 C 151.1329,-139.01902 151.90718,-139.39177 152.52614,-140.14401 C 153.17192,-140.92904 153.49484,-141.87711 153.49489,-142.95651 C 153.49484,-144.03593 153.17192,-144.92294 152.52614,-145.67526 C 151.90718,-146.46021 151.13285,-146.86276 150.24489,-146.86276 L 145.90114,-146.86276 L 145.90114,-148.76901 L 145.86989,-148.76901 C 145.89118,-149.18201 145.98112,-149.5668 146.11989,-149.95651 C 146.31017,-150.44716 146.53966,-150.87796 146.83864,-151.23776 C 147.16483,-151.63021 147.5206,-151.9165 147.90114,-152.11276 C 148.30883,-152.34173 148.71218,-152.45651 149.11989,-152.45651 L 151.52614,-152.45651 L 153.55739,-152.45651 C 154.50868,-152.45652 155.27187,-152.83066 155.86989,-153.55026 C 156.49501,-154.30257 156.80734,-155.24919 156.80739,-156.39401 C 156.80737,-157.44064 156.53439,-158.35891 155.96364,-159.14401 C 155.39281,-159.92896 154.59021,-160.30026 153.55739,-160.30026 L 151.52614,-160.30026 L 149.11989,-160.30026 z M 256.05739,-159.17526 C 255.17503,-159.19736 254.40665,-158.8764 253.74489,-158.20651 C 253.08311,-157.53666 252.74486,-156.5736 252.74489,-155.33151 L 252.74489,-151.58151 L 252.80739,-151.58151 L 252.80739,-140.14401 L 252.80739,-128.42526 L 252.74489,-128.42526 L 252.74489,-128.33151 C 252.74489,-126.72989 253.00223,-125.21895 253.52614,-123.80026 C 254.05005,-122.34896 254.77243,-121.08923 255.68239,-119.98776 C 256.59232,-118.88635 257.65296,-118.01352 258.83864,-117.36276 C 259.89806,-116.79397 261.01674,-116.46096 262.18239,-116.36276 L 262.18239,-116.33151 L 274.05739,-116.05026 L 274.21364,-116.05026 L 276.11989,-115.98776 C 277.16767,-115.96156 277.9783,-116.34282 278.55739,-117.11276 C 279.13639,-117.88278 279.43237,-118.78556 279.43239,-119.83151 C 279.43237,-120.97558 279.09783,-121.93888 278.46364,-122.70651 C 277.85701,-123.44083 277.08495,-123.80737 276.11989,-123.83151 L 274.05739,-123.89401 L 274.05739,-123.86276 L 265.11989,-124.08151 L 265.11989,-124.11276 L 262.68239,-124.17526 C 262.26878,-124.18563 261.84597,-124.31112 261.43239,-124.55026 C 261.04633,-124.75607 260.70077,-125.056 260.36989,-125.45651 C 260.06658,-125.82368 259.8129,-126.24265 259.61989,-126.73776 C 259.46338,-127.17459 259.37861,-127.65056 259.36989,-128.11276 L 259.40114,-128.11276 L 259.40114,-139.89401 L 259.40114,-151.76901 L 259.36989,-151.76901 L 259.36989,-155.14401 C 259.36986,-156.3861 259.03165,-157.37853 258.36989,-158.08151 C 257.73567,-158.78386 256.96732,-159.15247 256.05739,-159.17526 z M 177.80739,-155.01901 C 176.85804,-155.01893 176.0194,-154.67153 175.30739,-153.98776 C 174.59539,-153.30384 174.24489,-152.35021 174.24489,-151.11276 L 174.24489,-127.67526 C 174.24489,-126.4378 174.59539,-125.45287 175.30739,-124.76901 C 176.0194,-124.08515 176.85804,-123.73776 177.80739,-123.73776 C 178.7567,-123.73777 179.56414,-124.08515 180.27614,-124.76901 C 180.98816,-125.45287 181.36989,-126.4378 181.36989,-127.67526 L 181.36989,-151.11276 C 181.36989,-152.35021 180.98816,-153.30384 180.27614,-153.98776 C 179.56412,-154.67153 178.75672,-155.01894 177.80739,-155.01901 z M 194.15114,-154.26901 C 193.06786,-154.26902 192.03497,-154.04414 191.05739,-153.55026 C 190.10623,-153.05631 189.27075,-152.38376 188.55739,-151.55026 C 187.84403,-150.71669 187.26137,-149.72376 186.83864,-148.58151 C 186.4159,-147.47011 186.21364,-146.28464 186.21364,-145.01901 C 186.21364,-143.75322 186.4159,-142.53626 186.83864,-141.39401 C 187.26137,-140.28262 187.84403,-139.32125 188.55739,-138.48776 C 189.27075,-137.65419 190.10622,-136.98171 191.05739,-136.48776 C 192.03498,-135.99381 193.06786,-135.76901 194.15114,-135.76901 L 206.83864,-135.76901 C 207.28777,-135.76902 207.64172,-135.577 207.93239,-135.20651 C 208.24942,-134.8669 208.40112,-134.41883 208.40114,-133.89401 C 208.40112,-133.36919 208.24942,-132.92067 207.93239,-132.55026 C 207.64172,-132.21065 207.28778,-132.05026 206.83864,-132.05026 L 189.40114,-132.05026 C 188.52923,-132.05026 187.754,-131.66615 187.11989,-130.92526 C 186.5122,-130.21524 186.21364,-129.38151 186.21364,-128.36276 C 186.21364,-127.34401 186.51222,-126.44741 187.11989,-125.70651 C 187.754,-124.99647 188.52924,-124.64401 189.40114,-124.64401 L 206.83864,-124.64401 C 207.92188,-124.64401 208.91871,-124.90007 209.86989,-125.39401 C 210.84744,-125.88793 211.68774,-126.52925 212.40114,-127.36276 C 213.1145,-128.19628 213.69712,-129.18888 214.11989,-130.30026 C 214.54258,-131.44245 214.74484,-132.6283 214.74489,-133.89401 C 214.74484,-135.15973 214.54258,-136.34513 214.11989,-137.45651 C 213.69712,-138.59877 213.11449,-139.59169 212.40114,-140.42526 C 211.68775,-141.25874 210.84744,-141.93131 209.86989,-142.42526 C 208.91871,-142.91922 207.92189,-143.17526 206.83864,-143.17526 L 194.15114,-143.17526 C 193.70197,-143.17526 193.31194,-143.33571 192.99489,-143.67526 C 192.70428,-144.04574 192.55739,-144.49419 192.55739,-145.01901 C 192.5574,-145.54375 192.70427,-145.99189 192.99489,-146.33151 C 193.31195,-146.70192 193.70197,-146.86268 194.15114,-146.86276 L 211.58864,-146.86276 C 212.46051,-146.86267 213.19967,-147.21524 213.80739,-147.92526 C 214.44145,-148.66617 214.74484,-149.56273 214.74489,-150.58151 C 214.74484,-151.60027 214.44145,-152.46515 213.80739,-153.17526 C 213.19967,-153.91615 212.4605,-154.26901 211.58864,-154.26901 L 194.15114,-154.26901 z M 163.24489,-153.98776 C 162.36253,-154.00986 161.59415,-153.68891 160.93239,-153.01901 C 160.27061,-152.34916 159.93236,-151.38609 159.93239,-150.14401 L 159.93239,-146.39401 L 159.96364,-146.39401 L 159.96364,-134.95651 L 159.96364,-123.20651 L 159.93239,-123.20651 L 159.93239,-123.14401 C 159.93239,-121.54239 160.18973,-120.03144 160.71364,-118.61276 C 161.23755,-117.16145 161.95993,-115.90172 162.86989,-114.80026 C 163.77982,-113.69885 164.8092,-112.82602 165.99489,-112.17526 C 167.05431,-111.60647 168.17299,-111.27347 169.33864,-111.17526 L 169.33864,-111.14401 L 181.24489,-110.86276 L 181.40114,-110.86276 L 183.30739,-110.80026 C 184.35517,-110.77406 185.1658,-111.15531 185.74489,-111.92526 C 186.32389,-112.69528 186.58862,-113.59807 186.58864,-114.64401 C 186.58862,-115.78808 186.28533,-116.75136 185.65114,-117.51901 C 185.04451,-118.25333 184.27245,-118.61988 183.30739,-118.64401 L 181.24489,-118.70651 L 181.24489,-118.67526 L 172.27614,-118.89401 L 172.27614,-118.92526 L 169.86989,-118.98776 C 169.45628,-118.99813 169.03347,-119.12362 168.61989,-119.36276 C 168.23383,-119.56857 167.85702,-119.86849 167.52614,-120.26901 C 167.22283,-120.63618 167.0004,-121.05514 166.80739,-121.55026 C 166.65088,-121.98709 166.56611,-122.43181 166.55739,-122.89401 L 166.58864,-122.89401 L 166.58864,-134.70651 L 166.58864,-146.58151 L 166.55739,-146.58151 L 166.55739,-149.95651 C 166.55736,-151.1986 166.21914,-152.19102 165.55739,-152.89401 C 164.92317,-153.59636 164.15483,-153.96498 163.24489,-153.98776 z "
       style="font-size:237.1852417px;font-style:normal;font-weight:normal;fill:none;fill-opacity:1;stroke:#969696;stroke-width:1.5547471;stroke-linecap:butt;stroke-linejoin:miter;stroke-miterlimit:4;stroke-dasharray:none;stroke-opacity:1;filter:url(#filter10567);font-family:Sci Fied 2002"
       id="path5642"
       transform="matrix(2.5019469,0,0,2.5019469,-302.06182,489.72071)" />
    <path
       sodipodi:rx="19.719379"
       sodipodi:ry="19.719379"
       style="opacity:0.99166667;fill:url(#radialGradient5966);fill-opacity:1;stroke:#000000;stroke-width:6.82403612;stroke-miterlimit:4;stroke-dasharray:none;stroke-opacity:1"
       sodipodi:type="arc"
       d="M -471.62184 33.197422 A 19.719379 19.719379 0 1 1  -511.0606,33.197422 A 19.719379 19.719379 0 1 1  -471.62184 33.197422 z"
       transform="matrix(0.568288,0,0,0.568288,419.67467,61.755139)"
       sodipodi:cy="33.197422"
       sodipodi:cx="-491.34122"
       id="path5644" />
    <g
       id="g5646"
       transform="matrix(2.5019469,0,0,2.5019469,-302.06182,489.72071)">
      <path
         sodipodi:rx="159.457"
         sodipodi:ry="164.18164"
         style="fill:#b3b3b3;fill-opacity:0;fill-rule:evenodd;stroke:url(#linearGradient5968);stroke-width:5.625;stroke-linecap:butt;stroke-linejoin:miter;stroke-dasharray:none;stroke-opacity:1;filter:url(#filter18841)"
         sodipodi:type="arc"
         d="M 708.69772 157.04071 A 159.457 164.18164 0 1 1  389.78372,157.04071 A 159.457 164.18164 0 1 1  708.69772 157.04071 z"
         transform="matrix(0.2622564,0,0,0.2622564,130.99616,-178.35599)"
         sodipodi:cy="157.04071"
         sodipodi:cx="549.24072"
         id="path5648" />
      <g
         style="fill:#b3b3b3;filter:url(#filter5366)"
         transform="matrix(0.1240942,0,0,0.1240942,367.14495,-358.38512)"
         id="g5650">
        <path
           sodipodi:nodetypes="ccccccccccccccccccccc"
           style="font-size:12px;fill:#b3b3b3;fill-opacity:1;fill-rule:nonzero;stroke:none;stroke-width:1pt;stroke-linecap:butt;stroke-linejoin:miter;stroke-opacity:1"
           d="M -857.73047,1551.9076 C -888.33731,1552.4648 -900.69221,1511.2338 -889.70031,1487.2881 C -870.49631,1466.1248 -824.79375,1488.4881 -803.01372,1494.8341 C -777.11588,1514.6465 -790.26997,1554.4974 -781.6498,1583.6396 C -763.66507,1584.3451 -726.61432,1553.8201 -730.40022,1592.6393 C -734.8576,1612.7116 -689.83491,1621.2931 -709.46793,1646.2321 C -687.07302,1648.5137 -684.49794,1680.1664 -711.04605,1673.0855 C -736.41009,1661.5854 -740.82822,1623.9077 -773.58039,1620.1423 C -801.94103,1610.4627 -840.82421,1603.713 -848.96833,1569.4843 C -854.25162,1552.6314 -862.66673,1524.7636 -868.38783,1515.3562 C -862.16185,1525.756 -857.28711,1567.2639 -870.68697,1537.2107 C -877.21691,1526.5185 -888.9623,1479.0051 -866.29991,1501.8892 C -853.01423,1528.7591 -848.59736,1561.6457 -827.96852,1585.4632 C -812.24645,1610.3178 -782.44706,1611.8563 -757.26566,1618.0738 C -734.70149,1628.6121 -727.94691,1660.5186 -702.51414,1665.0823 C -698.12215,1662.5189 -722.65052,1643.8483 -721.27084,1629.5317 C -721.77217,1606.7915 -751.90095,1606.2292 -740.3494,1584.5979 C -747.25027,1565.5404 -774.99369,1612.594 -786.31372,1580.4017 C -793.00611,1552.4349 -794.14994,1505.1373 -820.94836,1499.8154 C -838.16899,1493.2496 -870.84988,1479.5291 -885.23769,1490.9014 C -887.56081,1512.5458 -877.95171,1541.4519 -857.73047,1551.9076 z "
           id="path5652" />
        <path
           style="font-size:12px;fill:#b3b3b3;fill-opacity:1;fill-rule:nonzero;stroke:none;stroke-width:1pt;stroke-linecap:butt;stroke-linejoin:miter;stroke-opacity:1"
           d="M -683.17189,1586.5196 C -694.92059,1619.8044 -623.39306,1587.2117 -667.40606,1583.9117 C -703.86253,1565.0619 -621.36973,1599.8588 -662.22102,1602.1863 C -673.23793,1604.5506 -705.8846,1603.714 -683.17189,1586.5196 z "
           id="path5654" />
        <path
           style="font-size:12px;fill:#b3b3b3;fill-opacity:1;fill-rule:nonzero;stroke:none;stroke-width:1pt;stroke-linecap:butt;stroke-linejoin:miter;stroke-opacity:1"
           d="M -697.91227,1669.5515 C -676.1727,1690.9962 -698.99105,1719.0161 -708.59322,1740.2996 C -726.93568,1771.5803 -689.37136,1790.5412 -677.4599,1815.0714 C -653.35683,1847.1019 -630.52822,1889.4716 -648.67726,1929.7789 C -659.40254,1958.9401 -662.00205,1991.165 -669.65244,2021.5659 C -673.05612,2043.1322 -677.82012,2088.4568 -653.65267,2092.6807 C -648.80777,2069.3582 -650.80576,2044.2452 -631.29433,2026.6729 C -612.10132,1991.5154 -580.58754,1964.4877 -546.20685,1944.7492 C -543.75391,1909.9139 -507.80445,1895.7444 -482.67663,1879.1166 C -471.53333,1860.9588 -474.90035,1830.1213 -454.42816,1812.1197 C -438.74451,1796.1484 -430.84037,1759.0481 -460.95471,1754.6529 C -501.09225,1739.2497 -534.17286,1710.0265 -560.86845,1676.9333 C -593.1711,1660.181 -629.83158,1655.8019 -663.80469,1643.734 C -667.73977,1656.2093 -697.77863,1679.0919 -703.2431,1666.8335 C -685.53646,1641.457 -653.46015,1623.7147 -625.20692,1647.1542 C -601.2143,1654.2304 -571.67875,1657.3775 -550.56445,1675.1815 C -525.86247,1687.7667 -520.05747,1720.2326 -493.03785,1727.9898 C -469.0593,1740.532 -435.24582,1748.7096 -426.15758,1777.4349 C -424.57429,1805.5755 -458.02041,1819.2696 -459.78536,1847.4257 C -464.89491,1869.7827 -471.73775,1899.3757 -498.77405,1903.501 C -536.64636,1903.4555 -527.26767,1965.5239 -565.85611,1971.8932 C -590.65342,1978.9977 -603.48874,2008.4009 -620.76505,2026.9518 C -642.08718,2046.4567 -632.77611,2079.702 -646.97601,2098.6371 C -673.84228,2114.3597 -695.10183,2075.6559 -688.54992,2052.4899 C -674.65814,2023.7095 -680.31715,1989.0267 -668.24177,1958.3533 C -660.91359,1925.7034 -647.82414,1888.9367 -660.83364,1856.6767 C -685.41938,1822.6963 -722.52454,1790.0301 -721.50862,1744.7413 C -719.45637,1717.0183 -689.04589,1699.8896 -697.91227,1669.5515 z "
           id="path5656" />
      </g>
      <path
         sodipodi:rx="159.457"
         sodipodi:ry="164.18164"
         style="fill:#98a5e1;fill-opacity:0;fill-rule:evenodd;stroke:url(#linearGradient5970);stroke-width:5.625;stroke-linecap:butt;stroke-linejoin:miter;stroke-dasharray:none;stroke-opacity:1"
         sodipodi:type="arc"
         d="M 708.69772 157.04071 A 159.457 164.18164 0 1 1  389.78372,157.04071 A 159.457 164.18164 0 1 1  708.69772 157.04071 z"
         transform="matrix(0.2622564,0,0,0.2622564,130.48574,-178.75906)"
         sodipodi:cy="157.04071"
         sodipodi:cx="549.24072"
         id="path5658" />
      <g
         style="fill:#44aa00"
         transform="matrix(0.1240942,0,0,0.1240942,365.83916,-358.62534)"
         id="g5660">
        <path
           sodipodi:nodetypes="ccccccccccccccccccccc"
           style="font-size:12px;fill:#44aa00;fill-opacity:1;fill-rule:nonzero;stroke:none;stroke-width:1pt;stroke-linecap:butt;stroke-linejoin:miter;stroke-opacity:1"
           d="M -857.73047,1551.9076 C -888.33731,1552.4648 -900.69221,1511.2338 -889.70031,1487.2881 C -870.49631,1466.1248 -824.79375,1488.4881 -803.01372,1494.8341 C -777.11588,1514.6465 -790.26997,1554.4974 -781.6498,1583.6396 C -763.66507,1584.3451 -726.61432,1553.8201 -730.40022,1592.6393 C -734.8576,1612.7116 -689.83491,1621.2931 -709.46793,1646.2321 C -687.07302,1648.5137 -684.49794,1680.1664 -711.04605,1673.0855 C -736.41009,1661.5854 -740.82822,1623.9077 -773.58039,1620.1423 C -801.94103,1610.4627 -840.82421,1603.713 -848.96833,1569.4843 C -854.25162,1552.6314 -862.66673,1524.7636 -868.38783,1515.3562 C -862.16185,1525.756 -857.28711,1567.2639 -870.68697,1537.2107 C -877.21691,1526.5185 -888.9623,1479.0051 -866.29991,1501.8892 C -853.01423,1528.7591 -848.59736,1561.6457 -827.96852,1585.4632 C -812.24645,1610.3178 -782.44706,1611.8563 -757.26566,1618.0738 C -734.70149,1628.6121 -727.94691,1660.5186 -702.51414,1665.0823 C -698.12215,1662.5189 -722.65052,1643.8483 -721.27084,1629.5317 C -721.77217,1606.7915 -751.90095,1606.2292 -740.3494,1584.5979 C -747.25027,1565.5404 -774.99369,1612.594 -786.31372,1580.4017 C -793.00611,1552.4349 -794.14994,1505.1373 -820.94836,1499.8154 C -838.16899,1493.2496 -870.84988,1479.5291 -885.23769,1490.9014 C -887.56081,1512.5458 -877.95171,1541.4519 -857.73047,1551.9076 z "
           id="path5662" />
        <path
           style="font-size:12px;fill:#44aa00;fill-opacity:1;fill-rule:nonzero;stroke:none;stroke-width:1pt;stroke-linecap:butt;stroke-linejoin:miter;stroke-opacity:1"
           d="M -683.17189,1586.5196 C -694.92059,1619.8044 -623.39306,1587.2117 -667.40606,1583.9117 C -703.86253,1565.0619 -621.36973,1599.8588 -662.22102,1602.1863 C -673.23793,1604.5506 -705.8846,1603.714 -683.17189,1586.5196 z "
           id="path5664" />
        <path
           style="font-size:12px;fill:#44aa00;fill-opacity:1;fill-rule:nonzero;stroke:none;stroke-width:1pt;stroke-linecap:butt;stroke-linejoin:miter;stroke-opacity:1"
           d="M -697.91227,1669.5515 C -676.1727,1690.9962 -698.99105,1719.0161 -708.59322,1740.2996 C -726.93568,1771.5803 -689.37136,1790.5412 -677.4599,1815.0714 C -653.35683,1847.1019 -630.52822,1889.4716 -648.67726,1929.7789 C -659.40254,1958.9401 -662.00205,1991.165 -669.65244,2021.5659 C -673.05612,2043.1322 -677.82012,2088.4568 -653.65267,2092.6807 C -648.80777,2069.3582 -650.80576,2044.2452 -631.29433,2026.6729 C -612.10132,1991.5154 -580.58754,1964.4877 -546.20685,1944.7492 C -543.75391,1909.9139 -507.80445,1895.7444 -482.67663,1879.1166 C -471.53333,1860.9588 -474.90035,1830.1213 -454.42816,1812.1197 C -438.74451,1796.1484 -430.84037,1759.0481 -460.95471,1754.6529 C -501.09225,1739.2497 -534.17286,1710.0265 -560.86845,1676.9333 C -593.1711,1660.181 -629.83158,1655.8019 -663.80469,1643.734 C -667.73977,1656.2093 -697.77863,1679.0919 -703.2431,1666.8335 C -685.53646,1641.457 -653.46015,1623.7147 -625.20692,1647.1542 C -601.2143,1654.2304 -571.67875,1657.3775 -550.56445,1675.1815 C -525.86247,1687.7667 -520.05747,1720.2326 -493.03785,1727.9898 C -469.0593,1740.532 -435.24582,1748.7096 -426.15758,1777.4349 C -424.57429,1805.5755 -458.02041,1819.2696 -459.78536,1847.4257 C -464.89491,1869.7827 -471.73775,1899.3757 -498.77405,1903.501 C -536.64636,1903.4555 -527.26767,1965.5239 -565.85611,1971.8932 C -590.65342,1978.9977 -603.48874,2008.4009 -620.76505,2026.9518 C -642.08718,2046.4567 -632.77611,2079.702 -646.97601,2098.6371 C -673.84228,2114.3597 -695.10183,2075.6559 -688.54992,2052.4899 C -674.65814,2023.7095 -680.31715,1989.0267 -668.24177,1958.3533 C -660.91359,1925.7034 -647.82414,1888.9367 -660.83364,1856.6767 C -685.41938,1822.6963 -722.52454,1790.0301 -721.50862,1744.7413 C -719.45637,1717.0183 -689.04589,1699.8896 -697.91227,1669.5515 z "
           id="path5666" />
      </g>
    </g>
    <path
       style="font-size:237.1852417px;font-style:normal;font-weight:normal;fill:url(#linearGradient3606);fill-opacity:1;stroke:url(#linearGradient3608);stroke-width:3.88989472;stroke-linecap:butt;stroke-linejoin:miter;stroke-miterlimit:4;stroke-dasharray:none;stroke-opacity:1;font-family:Sci Fied 2002"
       d="M 68.75781,87.407973 C 65.425523,87.407973 62.28946,88.120458 59.297326,89.675367 C 56.3731,91.230248 53.801116,93.386169 51.556929,96.08661 C 49.312834,98.787247 47.532448,101.94625 46.240292,105.54709 C 44.948312,109.06606 44.285648,112.79584 44.285648,116.80586 L 44.285648,117.04041 L 44.442018,117.04041 L 44.442018,121.34064 L 37.874408,121.34064 C 35.692961,121.34067 33.831488,122.32434 32.245026,124.2335 C 30.724595,126.06307 29.977638,128.2541 29.977638,130.8793 C 29.977638,133.50437 30.724595,135.77235 32.245026,137.68148 C 33.831488,139.51105 35.692961,140.41799 37.874408,140.41799 L 44.442018,140.41799 L 44.442018,145.89098 L 44.285648,145.89098 L 44.285648,175.13251 L 44.285648,184.51479 C 44.285648,187.62461 45.077339,189.98932 46.709408,191.70791 C 48.341528,193.42647 50.240779,194.28803 52.416975,194.28803 C 54.661111,194.28803 56.560483,193.42647 58.124541,191.70791 C 59.756675,189.98932 60.626492,187.62461 60.626492,184.51479 L 60.626492,175.60162 L 60.626492,146.04736 L 60.704668,146.04736 L 60.704668,140.65255 L 71.572494,140.65255 C 73.794252,140.65255 75.73148,139.71992 77.280066,137.83784 C 78.895775,135.8738 79.7037,133.50171 79.70384,130.80113 C 79.7037,128.10052 78.895775,125.88122 77.280066,123.99895 C 75.73148,122.03511 73.79414,121.02788 71.572494,121.02788 L 60.704668,121.02788 L 60.704668,116.25857 L 60.626492,116.25857 C 60.679766,115.22529 60.904781,114.26252 61.251986,113.2875 C 61.728039,112.05996 62.302218,110.98208 63.050238,110.08188 C 63.866361,109.10003 64.756491,108.38371 65.708569,107.89266 C 66.728583,107.31986 67.73774,107.03261 68.75781,107.03261 L 74.778115,107.03261 L 79.860192,107.03261 C 82.24029,107.03264 84.149734,106.09651 85.645969,104.29613 C 87.209971,102.41388 87.991399,100.04548 87.991539,97.181218 C 87.991483,94.562591 87.308489,92.265147 85.880526,90.300861 C 84.452339,88.33694 82.444264,87.407973 79.860192,87.407973 L 74.778115,87.407973 L 68.75781,87.407973 z M 336.30974,90.222657 C 334.10211,90.167369 332.17971,90.970369 330.52399,92.646431 C 328.86824,94.322354 328.02196,96.731886 328.02204,99.839522 L 328.02204,109.22183 L 328.17842,109.22183 L 328.17842,137.83784 L 328.17842,167.15754 L 328.02204,167.15754 L 328.02204,167.3139 C 328.02204,171.32109 328.66589,175.1014 329.97667,178.65086 C 331.28749,182.28195 333.09486,185.51192 335.37151,188.26773 C 337.64811,191.0234 340.22359,193.20716 343.1901,194.83532 C 345.84071,196.25842 348.63961,197.09158 351.55597,197.33728 L 381.34479,198.11915 L 381.7357,198.11915 L 386.50505,198.2755 C 389.12653,198.34106 391.15472,197.38719 392.60356,195.46082 C 394.05217,193.53428 394.79269,191.27556 394.79275,188.65864 C 394.79269,185.79625 393.95572,183.38616 392.369,181.46555 C 390.85122,179.62832 388.91956,178.71127 386.50505,178.65086 L 381.34479,178.49448 L 381.34479,178.57269 L 358.98362,178.02537 L 358.98362,177.94719 L 352.88514,177.79081 C 351.8503,177.76488 350.79248,177.45091 349.75769,176.85258 C 348.79179,176.33767 347.92727,175.58724 347.09939,174.58519 C 346.34052,173.66655 345.70582,172.54013 345.22293,171.30139 C 344.83135,170.20846 344.61924,169.09581 344.59744,167.93939 L 344.67562,167.93939 L 344.67562,138.46333 L 344.67562,108.75271 L 344.59744,108.75271 L 344.59744,100.23046 C 344.59736,97.122824 343.75115,94.718048 342.09549,92.959165 C 340.50871,91.201932 338.58634,90.279653 336.30974,90.222657 z M 140.53239,100.6214 C 138.15719,100.62156 136.05893,101.49077 134.27752,103.20152 C 132.49615,104.91265 131.61922,107.29859 131.61922,110.39461 L 131.61922,169.034 C 131.61922,172.13005 132.49615,174.59431 134.27752,176.30529 C 136.05893,178.01628 138.15719,178.80725 140.53239,178.80725 C 142.90753,178.80725 144.92769,178.01628 146.70907,176.30529 C 148.49051,174.59431 149.44558,172.13005 149.44558,169.034 L 149.44558,110.39461 C 149.44555,107.29859 148.49051,104.91265 146.70907,103.20152 C 144.92764,101.49077 142.90756,100.62156 140.53239,100.6214 z M 181.42359,102.41965 C 178.71327,102.41968 176.12906,103.06045 173.68318,104.29613 C 171.30342,105.53196 169.21311,107.21465 167.42832,109.30001 C 165.64356,111.38556 164.18577,113.86982 163.12812,116.72768 C 162.07047,119.50831 161.5644,122.47431 161.5644,125.64085 C 161.5644,128.8078 162.07044,131.77439 163.12812,134.63222 C 164.18579,137.41288 165.64353,139.89636 167.42832,141.98169 C 169.21314,144.06724 171.30342,145.67156 173.68318,146.90741 C 176.12906,148.14324 178.71327,148.78387 181.42359,148.78387 L 213.16704,148.78387 C 214.29078,148.7839 215.17629,149.26426 215.90355,150.19121 C 216.69673,151.04091 217.07628,152.16193 217.07634,153.47501 C 217.07625,154.78808 216.69673,155.83208 215.90355,156.7588 C 215.17629,157.6085 214.29078,158.08797 213.16704,158.08797 L 169.53933,158.08797 C 167.35789,158.08797 165.41829,158.97083 163.83179,160.82448 C 162.31138,162.60096 161.5644,164.76505 161.5644,167.3139 C 161.5644,169.86277 162.31141,172.10602 163.83179,173.95972 C 165.41829,175.73621 167.35789,176.61803 169.53933,176.61803 L 213.16704,176.61803 C 215.87728,176.61803 218.37125,175.9774 220.75107,174.74157 C 223.19687,173.50578 225.29923,171.82308 227.08411,169.73767 C 228.86888,167.65223 230.32661,165.24701 231.38434,162.46638 C 232.4419,159.60869 232.94792,156.64176 232.94806,153.47501 C 232.94792,150.30825 232.4419,147.26427 231.38434,144.48364 C 230.32661,141.62578 228.86888,139.21972 227.08411,137.13417 C 225.29923,135.04884 223.19684,133.36612 220.75107,132.13027 C 218.37128,130.89439 215.87728,130.25381 213.16704,130.25381 L 181.42359,130.25381 C 180.2998,130.25381 179.32397,129.85238 178.5307,129.00285 C 177.80361,128.07592 177.43612,126.95392 177.43612,125.64085 C 177.43612,124.32799 177.80361,123.20675 178.5307,122.35705 C 179.32397,121.43029 180.2998,121.02808 181.42359,121.02788 L 225.0513,121.02788 C 227.23268,121.02808 229.082,120.14601 230.60249,118.36958 C 232.18888,116.51584 232.94792,114.27271 232.94806,111.72378 C 232.94792,109.17488 232.18888,107.01101 230.60249,105.23436 C 229.082,103.38068 227.23263,102.41965 225.0513,102.41965 L 181.42359,102.41965 z M 104.09779,103.20152 C 101.89017,103.14624 99.889563,103.94924 98.23387,105.62527 C 96.578121,107.30122 95.810011,109.71072 95.810095,112.81839 L 95.810095,122.20067 L 95.888272,122.20067 L 95.888272,150.8167 L 95.888272,180.13638 L 95.810095,180.13638 L 95.810095,180.37094 C 95.810095,184.37811 96.453917,188.08026 97.764756,191.6297 C 99.075538,195.26082 100.88288,198.49075 103.15957,201.24657 C 105.43617,204.00224 108.01162,206.186 110.97815,207.81419 C 113.62876,209.23726 116.42766,210.07045 119.34403,210.31614 L 119.34403,210.39432 L 149.13285,211.09799 L 149.52376,211.09799 L 154.21492,211.25437 C 156.83641,211.3199 158.94277,210.36603 160.39161,208.43966 C 161.84022,206.51312 162.50254,204.2544 162.50262,201.63751 C 162.50257,198.77509 161.74375,196.36502 160.15705,194.44441 C 158.63927,192.60719 156.62947,191.69011 154.21492,191.6297 L 149.13285,191.47335 L 149.13285,191.55153 L 126.6935,191.00424 L 126.6935,190.92603 L 120.67319,190.76968 C 119.63838,190.74371 118.58053,190.42975 117.54577,189.83145 C 116.57985,189.31651 115.63711,188.56611 114.80927,187.56406 C 114.05039,186.64542 113.41569,185.59717 112.93278,184.35844 C 112.54123,183.26551 112.40732,182.07465 112.38549,180.91826 L 112.46367,180.91826 L 112.46367,151.44217 L 112.46367,121.73155 L 112.30732,121.73155 L 112.30732,113.2875 C 112.30723,110.17984 111.53921,107.69686 109.88354,105.93803 C 108.29676,104.18077 106.37439,103.25852 104.09779,103.20152 z "
       id="path5668" />
    <path
       style="font-size:237.1852417px;font-style:normal;font-weight:normal;fill:none;fill-opacity:1;stroke:#646464;stroke-width:1.25097346;stroke-linecap:butt;stroke-linejoin:miter;stroke-miterlimit:4;stroke-dasharray:none;stroke-opacity:1;font-family:Sci Fied 2002"
       d="M 68.7664,87.983551 C 65.434112,87.983551 62.298049,88.696036 59.305916,90.250945 C 56.38169,91.805826 53.809705,93.961747 51.565513,96.662188 C 49.321419,99.362797 47.541032,102.52183 46.248879,106.12267 C 44.956896,109.64164 44.294232,113.37141 44.294232,117.38143 L 44.294232,117.61599 L 44.450602,117.61599 L 44.450602,121.91619 L 37.882992,121.91619 C 35.701545,121.91622 33.840073,122.89992 32.253611,124.80908 C 30.733179,126.63864 29.986223,128.82965 29.986223,131.45488 C 29.986223,134.07994 30.733179,136.3479 32.253611,138.25703 C 33.840073,140.08662 35.701545,140.99354 37.882992,140.99354 L 44.450602,140.99354 L 44.450602,146.46656 L 44.294232,146.46656 L 44.294232,175.70806 L 44.294232,185.09037 C 44.294232,188.20016 45.085923,190.56489 46.717993,192.28346 C 48.350113,194.00202 50.249367,194.86361 52.425559,194.86361 C 54.669701,194.86361 56.569045,194.00202 58.133131,192.28346 C 59.765237,190.56489 60.635082,188.20016 60.635082,185.09037 L 60.635082,176.1772 L 60.635082,146.62294 L 60.713258,146.62294 L 60.713258,141.2281 L 71.581083,141.2281 C 73.802841,141.22813 75.740042,140.2955 77.288655,138.41342 C 78.904365,136.44935 79.71229,134.07729 79.71243,131.37671 C 79.71229,128.6761 78.904365,126.4568 77.288655,124.57453 C 75.740042,122.61066 73.80273,121.60346 71.581083,121.60346 L 60.713258,121.60346 L 60.713258,116.83412 L 60.635082,116.83412 C 60.688328,115.80087 60.913371,114.8381 61.260548,113.86305 C 61.736629,112.63554 62.310808,111.55763 63.058828,110.65746 C 63.874951,109.67561 64.765053,108.95926 65.717159,108.46824 C 66.737173,107.89543 67.74633,107.60819 68.7664,107.60819 L 74.786705,107.60819 L 79.868782,107.60819 C 82.24888,107.60822 84.158324,106.67209 85.654531,104.87168 C 87.218561,102.98946 87.999989,100.62106 88.000128,97.756769 C 88.000072,95.138169 87.317079,92.840697 85.889088,90.87644 C 84.460901,88.912518 82.452854,87.983551 79.868782,87.983551 L 74.786705,87.983551 L 68.7664,87.983551 z M 336.31836,90.798235 C 334.11073,90.742947 332.1883,91.545947 330.53261,93.222009 C 328.87686,94.897932 328.03058,97.307464 328.03066,100.4151 L 328.03066,109.79741 L 328.18701,109.79741 L 328.18701,138.41342 L 328.18701,167.73309 L 328.03066,167.73309 L 328.03066,167.88948 C 328.03066,171.89667 328.67451,175.67697 329.98529,179.22644 C 331.2961,182.8575 333.10348,186.08747 335.38013,188.84331 C 337.65673,191.59895 340.23218,193.78274 343.19872,195.4109 C 345.84932,196.834 348.64823,197.66716 351.56459,197.91285 L 381.35338,198.6947 L 381.74432,198.6947 L 386.51367,198.85108 C 389.13515,198.91664 391.16334,197.96277 392.61215,196.0364 C 394.06079,194.10983 394.80131,191.85114 394.80136,189.23422 C 394.80131,186.37183 393.96434,183.96173 392.37759,182.04113 C 390.85984,180.2039 388.92815,179.28682 386.51367,179.22644 L 381.35338,179.07006 L 381.35338,179.14824 L 358.99224,178.60095 L 358.99224,178.52277 L 352.89376,178.36639 C 351.85891,178.34045 350.8011,178.02649 349.76631,177.42816 C 348.80041,176.91325 347.93586,176.16282 347.10801,175.16077 C 346.34913,174.24213 345.7144,173.11571 345.23152,171.87697 C 344.83994,170.78404 344.62785,169.67139 344.60606,168.51497 L 344.68423,168.51497 L 344.68423,139.03891 L 344.68423,109.32829 L 344.60606,109.32829 L 344.60606,100.80604 C 344.60597,97.698374 343.75977,95.293626 342.10411,93.534743 C 340.51733,91.77751 338.59496,90.855231 336.31836,90.798235 z M 140.54101,101.19695 C 138.16578,101.19714 136.06755,102.06634 134.28614,103.7771 C 132.50476,105.48822 131.62781,107.87414 131.62781,110.97019 L 131.62781,169.60958 C 131.62781,172.70563 132.50476,175.16989 134.28614,176.88087 C 136.06755,178.59185 138.16578,179.3828 140.54101,179.3828 C 142.91612,179.3828 144.93631,178.59185 146.71769,176.88087 C 148.49913,175.16989 149.4542,172.70563 149.4542,169.60958 L 149.4542,110.97019 C 149.45417,107.87414 148.49913,105.48822 146.71769,103.7771 C 144.93626,102.06634 142.91618,101.19714 140.54101,101.19695 z M 181.43221,102.99523 C 178.72189,102.99525 176.13765,103.63603 173.6918,104.87168 C 171.31204,106.10753 169.22173,107.7902 167.43694,109.87558 C 165.65217,111.96113 164.19435,114.4454 163.13671,117.30323 C 162.07906,120.08389 161.57299,123.04989 161.57299,126.21642 C 161.57299,129.38338 162.07903,132.34994 163.13671,135.20779 C 164.19438,137.98843 165.65214,140.47191 167.43694,142.55726 C 169.22176,144.64282 171.31204,146.24714 173.6918,147.48299 C 176.13765,148.71881 178.72189,149.35945 181.43221,149.35945 L 213.17566,149.35945 C 214.29937,149.35947 215.18491,149.83984 215.91217,150.76679 C 216.70535,151.61646 217.0849,152.73751 217.08495,154.05058 C 217.08487,155.36366 216.70535,156.40765 215.91217,157.33438 C 215.18491,158.18408 214.29937,158.66355 213.17566,158.66355 L 169.54795,158.66355 C 167.36651,158.66355 165.42691,159.54638 163.84038,161.40006 C 162.31997,163.17654 161.57299,165.34063 161.57299,167.88948 C 161.57299,170.43835 162.32003,172.68159 163.84038,174.53527 C 165.42691,176.31176 167.36651,177.19361 169.54795,177.19361 L 213.17566,177.19361 C 215.8859,177.19361 218.37987,176.55295 220.75969,175.31715 C 223.20548,174.08135 225.30785,172.39866 227.09273,170.31325 C 228.87749,168.22781 230.3352,165.82256 231.39296,163.04195 C 232.45052,160.18427 232.95654,157.21731 232.95668,154.05058 C 232.95654,150.88383 232.45049,147.83982 231.39296,145.05922 C 230.33523,142.20133 228.87749,139.7953 227.09273,137.70974 C 225.30785,135.62442 223.20546,133.9417 220.75969,132.70584 C 218.3799,131.46996 215.8859,130.82939 213.17566,130.82939 L 181.43221,130.82939 C 180.30839,130.82939 179.33256,130.42796 178.53932,129.57843 C 177.8122,128.6515 177.44471,127.5295 177.44471,126.21642 C 177.44471,124.90354 177.8122,123.78233 178.53932,122.93263 C 179.33256,122.00587 180.30839,121.60366 181.43221,121.60346 L 225.05989,121.60346 C 227.2413,121.60366 229.09062,120.72158 230.61108,118.94516 C 232.19747,117.09142 232.95654,114.84829 232.95668,112.29936 C 232.95654,109.75046 232.19747,107.58659 230.61108,105.80991 C 229.09062,103.95626 227.24125,102.99523 225.05989,102.99523 L 181.43221,102.99523 z M 104.10638,103.7771 C 101.89876,103.72179 99.898153,104.52479 98.242431,106.20085 C 96.58671,107.87677 95.818601,110.2863 95.818685,113.39394 L 95.818685,122.77625 L 95.896862,122.77625 L 95.896862,151.39225 L 95.896862,180.71196 L 95.818685,180.71196 L 95.818685,180.94652 C 95.818685,184.95368 96.462507,188.65581 97.773318,192.20528 C 99.084128,195.8364 100.89147,199.06633 103.16816,201.82215 C 105.44476,204.57782 108.02021,206.76158 110.98674,208.38974 C 113.63735,209.81284 116.43625,210.646 119.35262,210.89169 L 119.35262,210.9699 L 149.14144,211.67357 L 149.53237,211.67357 L 154.22354,211.82992 C 156.84502,211.89548 158.95139,210.94161 160.4002,209.01524 C 161.84884,207.0887 162.51116,204.82998 162.51124,202.21308 C 162.51119,199.35067 161.75237,196.9406 160.16564,195.01997 C 158.64789,193.18274 156.63808,192.26569 154.22354,192.20528 L 149.14144,192.0489 L 149.14144,192.1271 L 126.70211,191.57979 L 126.70211,191.50161 L 120.68178,191.34523 C 119.64694,191.31929 118.58912,191.00533 117.55434,190.407 C 116.58844,189.89208 115.64568,189.14169 114.81783,188.13961 C 114.05898,187.22099 113.42428,186.17275 112.94137,184.93401 C 112.54979,183.84108 112.41591,182.65022 112.39408,181.49384 L 112.47226,181.49384 L 112.47226,152.01775 L 112.47226,122.30713 L 112.31588,122.30713 L 112.31588,113.86305 C 112.31582,110.75542 111.5478,108.27244 109.89213,106.51361 C 108.30535,104.75635 106.38298,103.8341 104.10638,103.7771 z "
       id="path5670" />
    <g
       inkscape:export-ydpi="90"
       inkscape:export-xdpi="90"
       inkscape:export-filename="/home/phm/SVG/set_sol.png"
       id="g5684"
       transform="matrix(-0.1366996,1.9012768e-2,1.9012768e-2,0.1366996,-1596.9911,496.88364)">
      <path
         style="opacity:1;fill:#000000;fill-opacity:0.5;stroke:none;stroke-width:9.71899986;stroke-miterlimit:4;stroke-dasharray:none;stroke-opacity:1;filter:url(#filter16020)"
         d="M -13595.138,-1092.2172 C -13668.751,-1094.5376 -13742.365,-1096.858 -13815.979,-1099.1783 C -13818.79,-1010.1782 -13821.602,-921.17814 -13824.413,-832.17804 C -13865.658,-836.70112 -13906.902,-841.22598 -13948.147,-845.7489 C -13974.034,-881.93683 -13999.921,-918.1241 -14025.808,-954.31171 C -14014.581,-964.70423 -14000.814,-972.90311 -13992.808,-986.33298 C -13989.872,-991.9649 -13994.07,-998.35879 -13999.899,-999.57095 C -14006.675,-1002.4139 -14014.003,-999.45422 -14019.988,-996.0996 C -14033.233,-988.32053 -14040.812,-971.67519 -14036.928,-956.65318 C -14034.937,-948.26987 -14029.53,-940.76196 -14022.093,-936.38713 C -14016.974,-931.68997 -14013.579,-925.50632 -14009.174,-920.19009 C -13991.276,-896.0796 -13974.294,-871.26127 -13955.193,-848.06493 C -13949.052,-830.03262 -13952.2,-810.67086 -13955.489,-792.40803 C -13957.644,-780.44294 -13959.427,-768.34709 -13959.536,-756.1794 C -13964.068,-732.9787 -13961.018,-708.57223 -13969.004,-686.01094 C -13969.82,-681.32268 -13974.665,-681.84387 -13978.19,-682.50572 C -14004.182,-684.49421 -14030.194,-686.23171 -14056.193,-688.14145 C -14099.443,-691.2389 -14142.693,-694.33651 -14185.943,-697.43384 C -14187.744,-754.17336 -14189.544,-810.91289 -14191.345,-867.6524 C -14146.122,-864.13371 -14100.898,-860.61788 -14055.675,-857.09979 C -14054.347,-819.81132 -14053.02,-782.52284 -14051.692,-745.23438 C -14070.701,-751.06335 -14090.841,-742.65845 -14109.845,-748.43097 C -14118.137,-750.88116 -14125.91,-757.27353 -14127.275,-766.20749 C -14130.321,-782.05981 -14124.814,-798.46037 -14129.283,-814.12396 C -14129.583,-816.52867 -14133.039,-823.70894 -14134.035,-818.34892 C -14136.517,-797.55776 -14140.922,-776.23354 -14135.975,-755.44787 C -14134.2,-748.42011 -14130.802,-741.60757 -14125.34,-736.72535 C -14101.583,-732.26721 -14076.591,-730.43967 -14053.076,-737.18283 C -14048.677,-739.23225 -14041.821,-739.58257 -14040.467,-745.04821 C -14033.539,-762.93454 -14036.087,-782.46715 -14037.274,-801.10025 C -14038.153,-814.25241 -14038.07,-827.70858 -14034.215,-840.42927 C -14031.259,-853.90626 -14035.123,-869.71713 -14046.608,-878.14634 C -14055.184,-884.28695 -14066.702,-884.57672 -14076.328,-880.90311 C -14081.092,-879.69518 -14086.053,-881.1263 -14090.899,-880.9726 C -14132.746,-882.73989 -14174.608,-884.12025 -14216.474,-885.35748 C -14223.649,-815.75518 -14221.088,-745.62304 -14226.555,-675.91256 C -14225.992,-667.86027 -14218.436,-661.48524 -14210.492,-661.54175 C -14195.655,-659.87507 -14180.697,-665.57702 -14165.991,-661.67509 C -14159.135,-660.84855 -14152.198,-661.20789 -14145.314,-660.7244 C -14087.077,-658.6299 -14028.839,-656.53563 -13970.602,-654.44122 C -13975.09,-613.52066 -13979.579,-572.60011 -13984.067,-531.6795 C -14016.667,-507.19288 -14049.267,-482.70726 -14081.866,-458.21982 C -14093.415,-461.59329 -14101.117,-471.49881 -14110.86,-477.93738 C -14115.997,-481.6382 -14122.981,-484.85525 -14129.163,-481.70426 C -14133.289,-480.43751 -14135.435,-475.27079 -14132.068,-472.03797 C -14122.244,-456.977 -14104.932,-446.26217 -14086.656,-446.73253 C -14075.894,-447.04541 -14065.605,-452.7959 -14059.206,-461.37289 C -14050.19,-469.26935 -14040.579,-476.4515 -14031.407,-484.16554 C -14014.681,-497.75617 -13997.837,-511.24088 -13980.108,-523.51464 C -13957.15,-529.38241 -13933.395,-524.67696 -13910.552,-520.668 C -13898.667,-518.6395 -13886.648,-516.41575 -13874.559,-516.74075 C -13861.94,-519.28927 -13847.373,-517.74856 -13837.643,-508.59063 C -13830.095,-501.12708 -13828.313,-489.22955 -13831.598,-479.37745 C -13833.219,-471.59914 -13831.8,-463.62827 -13832.192,-455.76407 C -13831.715,-394.92539 -13831.238,-334.08671 -13830.762,-273.24802 C -13887.183,-266.95489 -13943.604,-260.66027 -14000.025,-254.36639 C -14000.1,-299.72129 -14000.174,-345.07619 -14000.249,-390.43109 C -13963.185,-394.71742 -13926.121,-399.00374 -13889.057,-403.29007 C -13893.366,-383.8757 -13883.386,-364.46254 -13887.634,-345.05749 C -13889.418,-336.59728 -13895.171,-328.33883 -13903.969,-326.26834 C -13919.529,-321.97125 -13936.315,-326.17225 -13951.574,-320.47283 C -13953.947,-319.98353 -13960.831,-315.9699 -13955.409,-315.40008 C -13934.483,-314.56737 -13912.871,-311.85196 -13892.541,-318.44424 C -13885.679,-320.77544 -13879.161,-324.71389 -13874.747,-330.56082 C -13872.241,-354.38627 -13872.239,-379.23195 -13880.732,-401.95719 C -13883.246,-406.41688 -13884.299,-413.60011 -13890.137,-414.57088 C -13908.864,-419.94604 -13928.401,-415.73695 -13947.2,-413.09251 C -13960.084,-411.23595 -13973.306,-410.36826 -13986.154,-412.97572 C -13999.597,-414.70101 -14014.711,-409.74345 -14022.267,-397.99058 C -14027.076,-390.00315 -14026.823,-379.69468 -14022.825,-371.43335 C -14021.159,-365.84615 -14022.004,-359.91942 -14021.407,-354.17734 C -14019.387,-312.09248 -14018.006,-269.97801 -14015.686,-227.90746 C -13945.541,-226.43998 -13875.628,-234.09674 -13805.519,-234.62113 C -13797.426,-236.57657 -13792.224,-245.08759 -13792.897,-253.17774 C -13792.489,-268.71223 -13799.72,-283.76942 -13796.94,-299.33907 C -13796.477,-306.77023 -13797.595,-314.18821 -13797.604,-321.62259 C -13800.325,-384.22966 -13803.045,-446.8368 -13805.766,-509.44391 C -13762.189,-504.66445 -13718.613,-499.88421 -13675.036,-495.10553 C -13649.379,-460.3203 -13623.722,-425.53487 -13598.065,-390.74954 C -13610.564,-384.14506 -13622.865,-375.90475 -13630.774,-363.92978 C -13633.219,-359.55288 -13631.188,-353.48938 -13626.081,-352.31888 C -13618.474,-348.98263 -13609.644,-350.74937 -13602.848,-355.12507 C -13593.023,-361.15735 -13587.352,-372.95559 -13588.52,-384.39722 C -13589.332,-397.2469 -13597.012,-409.32944 -13608.184,-415.67072 C -13612.947,-420.13576 -13616.162,-425.92813 -13620.387,-430.86533 C -13636.457,-452.02232 -13652.056,-473.53898 -13668.524,-494.39154 C -13661.93,-537.01568 -13657.89,-579.97723 -13653.973,-622.9137 C -13637.666,-628.22936 -13620.15,-624.20194 -13604.534,-618.48127 C -13588.781,-612.83157 -13573.038,-606.21847 -13556.164,-604.94404 C -13546.632,-603.15001 -13537.411,-600.03036 -13527.97,-597.83086 C -13491.335,-588.26586 -13454.706,-578.67927 -13418.074,-569.10638 C -13426.695,-512.99348 -13435.316,-456.88065 -13443.937,-400.76779 C -13487.75,-412.51233 -13531.562,-424.26282 -13575.375,-436.00879 C -13569.852,-472.90657 -13564.329,-509.80434 -13558.807,-546.70227 C -13541.184,-537.49448 -13519.846,-542.07529 -13502.218,-532.92236 C -13494.514,-528.99666 -13488.043,-521.28773 -13488.34,-512.25376 C -13488.247,-496.10751 -13496.67,-480.98847 -13495.138,-464.76702 C -13495.283,-462.34693 -13493.198,-454.65453 -13491.235,-459.74287 C -13484.982,-479.73374 -13476.728,-499.89515 -13477.793,-521.24413 C -13478.254,-528.47855 -13480.357,-535.79945 -13484.853,-541.58617 C -13507.204,-550.21643 -13531.194,-556.69484 -13555.35,-554.41617 C -13560.311,-553.1503 -13567.521,-554.00603 -13569.981,-548.62198 C -13580.054,-531.93917 -13581.081,-511.97599 -13583.428,-493.13415 C -13584.993,-480.20849 -13587.601,-467.21435 -13593.469,-455.48835 C -13598.639,-442.95854 -13597.793,-427.0729 -13588.415,-416.71385 C -13581.957,-409.98769 -13571.937,-407.54706 -13562.919,-409.25582 C -13557.09,-409.40995 -13551.586,-407.05122 -13545.886,-406.13199 C -13504.725,-397.1198 -13463.701,-387.4849 -13422.475,-378.76892 C -13402.888,-446.23906 -13391.751,-515.75716 -13374.24,-583.74439 C -13374.423,-592.35779 -13381.819,-599.38301 -13390.026,-600.83902 C -13405.551,-605.20936 -13422.596,-602.15933 -13437.434,-609.30767 C -13444.082,-611.49835 -13451.096,-612.25369 -13457.838,-614.11163 C -13521.76,-628.41581 -13585.681,-642.72017 -13649.603,-657.02515 C -13644.25,-705.84158 -13638.897,-754.65792 -13633.544,-803.4743 C -13587.585,-824.67704 -13541.625,-845.87749 -13495.666,-867.08014 C -13483.122,-858.33872 -13476.097,-843.63232 -13462.978,-835.60802 C -13458.422,-832.23793 -13451.667,-834.60933 -13450.044,-839.96201 C -13448.689,-846.05317 -13453.681,-851.20756 -13456.472,-856.15661 C -13467.196,-871.11528 -13486.606,-880.77149 -13505.044,-876.64181 C -13512.748,-874.94453 -13519.449,-870.4544 -13525.347,-865.42669 C -13560.898,-845.37773 -13598.946,-830.31338 -13635.084,-811.41278 C -13689.197,-817.34778 -13743.31,-823.28278 -13797.423,-829.21777 C -13792.273,-905.758 -13787.123,-982.29821 -13781.974,-1058.8385 C -13725.247,-1060.8864 -13668.521,-1062.9343 -13611.794,-1064.9822 C -13615.116,-1019.7539 -13618.438,-974.52552 -13621.76,-929.29718 C -13659.042,-927.80514 -13696.324,-926.3126 -13733.606,-924.82031 C -13727.859,-943.85428 -13736.361,-963.95472 -13730.675,-982.98377 C -13728.263,-991.28571 -13721.907,-999.08754 -13712.979,-1000.4901 C -13697.139,-1003.6072 -13680.714,-998.16685 -13665.069,-1002.7068 C -13662.666,-1003.0168 -13655.501,-1006.5031 -13660.865,-1007.4775 C -13681.669,-1009.8746 -13703.014,-1014.1934 -13723.781,-1009.1582 C -13730.801,-1007.3532 -13737.6,-1003.9266 -13742.458,-998.44147 C -13746.813,-974.62258 -13748.521,-949.57551 -13741.632,-926.05631 C -13739.575,-921.69879 -13739.191,-914.90171 -13733.751,-913.59134 C -13715.836,-906.7353 -13696.313,-909.36789 -13677.686,-910.63893 C -13664.537,-911.57671 -13651.08,-911.55427 -13638.342,-907.75597 C -13624.852,-904.85887 -13609.059,-908.79266 -13600.679,-920.31463 C -13594.568,-928.9261 -13594.34,-940.45724 -13598.062,-950.0759 C -13599.215,-954.56763 -13598.074,-959.25523 -13598.196,-963.8335 C -13596.792,-1006.6164 -13594.152,-1049.3931 -13595.138,-1092.2172 z M -13707.844,-987.32269 C -13714.763,-979.77645 -13713.886,-967.54539 -13707.695,-959.83447 C -13701.55,-951.0091 -13691.215,-944.3665 -13680.21,-944.79653 C -13672.761,-945.54241 -13667.157,-952.22215 -13666.215,-959.41159 C -13664.69,-967.94368 -13669.005,-976.80808 -13676.22,-981.43632 C -13685.187,-987.95456 -13697.133,-990.17332 -13707.844,-987.32269 z M -13872.268,-968.82025 C -13879.938,-975.59658 -13892.147,-974.49403 -13899.74,-968.16284 C -13908.449,-961.85853 -13914.892,-951.40333 -13914.262,-940.41175 C -13913.38,-932.98026 -13906.599,-927.50286 -13899.396,-926.69581 C -13890.84,-925.33042 -13882.061,-929.80886 -13877.57,-937.10536 C -13871.221,-946.18923 -13869.23,-958.16678 -13872.268,-968.82025 z M -13879.68,-909.76373 C -13887.698,-915.60962 -13900.019,-914.44904 -13906.445,-906.73864 C -13914.552,-898.44355 -13918.415,-885.48129 -13914.422,-874.36276 C -13911.77,-868.13372 -13904.997,-864.47273 -13898.358,-864.75989 C -13890.245,-864.32113 -13881.536,-868.46039 -13878.513,-876.36258 C -13874,-886.93097 -13875.687,-899.30423 -13879.68,-909.76373 z M -13654.077,-785.29462 C -13660.622,-745.2635 -13667.168,-705.23257 -13673.713,-665.20148 C -13709.548,-704.93072 -13745.383,-744.66016 -13781.219,-784.38861 C -13738.845,-785.30657 -13696.458,-785.4345 -13654.077,-785.29462 z M -13798.424,-783.98895 C -13769.544,-746.30911 -13740.663,-708.63015 -13711.783,-670.95044 C -13718.274,-666.09212 -13718.462,-657.00757 -13717.272,-649.70991 C -13716.21,-641.84159 -13713.553,-633.31873 -13717.025,-625.69751 C -13719.778,-620.85701 -13725.615,-619.32468 -13730.762,-618.85739 C -13735.677,-617.01807 -13738.946,-612.60428 -13743.236,-609.74919 C -13764.96,-592.37441 -13785.929,-574.07451 -13807.815,-556.90027 C -13805.094,-563.40918 -13803.748,-572.08717 -13809.179,-577.6236 C -13815.859,-584.31059 -13825.782,-585.38063 -13834.536,-587.50123 C -13844.318,-589.52728 -13854.995,-591.66505 -13862.08,-599.33052 C -13876.65,-612.73549 -13894.175,-623.12721 -13906.334,-639.02188 C -13908.056,-641.45861 -13913.761,-648.07692 -13907.76,-648.31499 C -13897.094,-648.95115 -13885.973,-650.9345 -13877.019,-657.12416 C -13872.482,-660.36542 -13873.016,-667.21292 -13876.681,-670.91164 C -13880.616,-676.64568 -13887.786,-675.08611 -13893.637,-675.28116 C -13902.592,-675.73336 -13912.169,-676.88643 -13919.571,-682.38511 C -13923.571,-686.22364 -13921.415,-692.37006 -13917.759,-695.58945 C -13912.349,-701.43159 -13905.401,-705.52257 -13899.528,-710.85481 C -13878.223,-727.83665 -13855.776,-743.51332 -13836.184,-762.53883 C -13826.772,-761.03964 -13822.594,-750.76931 -13814.048,-747.63157 C -13808.444,-745.96123 -13804.173,-751.70946 -13802.108,-756.14817 C -13797.533,-764.73685 -13798.849,-774.65662 -13798.424,-783.98895 z M -14073.143,-812.81683 C -14081.106,-819.13637 -14093.673,-817.9301 -14100.392,-810.32592 C -14108.642,-802.45291 -14113.289,-790.06541 -14110.131,-778.84707 C -14107.925,-772.61513 -14101.427,-768.76012 -14094.959,-768.79297 C -14085.934,-768.16091 -14077.063,-773.43973 -14073.087,-781.52581 C -14067.804,-791.03928 -14067.54,-803.37832 -14073.143,-812.81683 z M -13842.777,-782.87897 C -13872.374,-756.17781 -13901.971,-729.47703 -13931.568,-702.77625 C -13923.049,-723.05261 -13929.794,-746.09209 -13921.64,-766.45604 C -13920,-770.16309 -13918.224,-774.16718 -13915.191,-776.88057 C -13901.418,-784.06427 -13885.395,-783.06911 -13870.375,-782.30339 C -13861.176,-781.9469 -13851.947,-782.01927 -13842.777,-782.87897 z M -13506.214,-731.65594 C -13514.176,-737.97934 -13526.748,-736.77866 -13533.469,-729.17292 C -13541.721,-721.29985 -13546.372,-708.9107 -13543.214,-697.6899 C -13541.009,-691.45687 -13534.511,-687.59913 -13528.041,-687.63228 C -13519.015,-686.99917 -13510.14,-692.27458 -13506.16,-700.36205 C -13500.874,-709.87519 -13500.605,-722.21725 -13506.214,-731.65594 z M -13576.81,-734.55475 C -13584.771,-740.87714 -13597.339,-739.67755 -13604.06,-732.07374 C -13612.312,-724.20275 -13616.959,-711.81498 -13613.801,-700.5968 C -13611.596,-694.36446 -13605.097,-690.50872 -13598.628,-690.54114 C -13589.604,-689.9076 -13580.729,-695.18012 -13576.751,-703.26655 C -13571.466,-712.77865 -13571.203,-725.11909 -13576.81,-734.55475 z M -13806.558,-691.20447 C -13816.723,-691.32874 -13825.924,-682.68372 -13826.584,-672.55793 C -13828.29,-661.2825 -13824.386,-648.64001 -13815.022,-641.70128 C -13809.463,-638.12361 -13801.964,-639.05106 -13796.869,-643.03704 C -13789.345,-648.06116 -13785.557,-657.66408 -13787.362,-666.49352 C -13789.005,-677.25071 -13796.347,-687.17479 -13806.558,-691.20447 z M -13680.37,-637.68103 C -13681.193,-599.76375 -13693.682,-563.27344 -13695.401,-525.44378 C -13708.887,-517.85167 -13725.281,-519.0175 -13739.748,-522.80406 C -13755.433,-526.7262 -13770.51,-533.10541 -13786.601,-535.34392 C -13787.387,-539.82826 -13783.582,-543.34045 -13781.545,-546.93472 C -13770.779,-560.67413 -13753.811,-567.59416 -13742.693,-580.99321 C -13737.171,-587.07497 -13730.602,-592.06886 -13724.658,-597.72236 C -13709.895,-611.04184 -13695.132,-624.36111 -13680.37,-637.68103 z M -13941.845,-639.11652 C -13914.13,-608.38306 -13886.414,-577.65075 -13858.699,-546.91754 C -13890.405,-552.99372 -13922.111,-559.06858 -13953.817,-565.1441 C -13949.801,-589.79748 -13945.836,-614.45966 -13941.845,-639.11652 z M -14074.285,-627.99811 C -14081.956,-634.77496 -14094.164,-633.6711 -14101.757,-627.34051 C -14110.466,-621.03606 -14116.909,-610.58096 -14116.279,-599.58934 C -14115.397,-592.15765 -14108.615,-586.68042 -14101.412,-585.87348 C -14092.856,-584.50856 -14084.077,-588.98565 -14079.585,-596.28226 C -14073.237,-605.36625 -14071.24,-617.34448 -14074.285,-627.99811 z M -14043.294,-620.49286 C -14051.204,-613.995 -14052.056,-601.76438 -14047.012,-593.26002 C -14042.171,-583.65875 -14032.876,-575.6272 -14021.921,-574.50354 C -14014.443,-574.19318 -14007.955,-580.01645 -14006.012,-587.00101 C -14003.301,-595.2327 -14006.325,-604.61491 -14012.816,-610.21148 C -14020.777,-617.92641 -14032.288,-621.80296 -14043.294,-620.49286 z M -13546.138,-515.85724 C -13553.571,-509.28648 -13555.091,-497.00607 -13548.946,-489.07115 C -13542.591,-479.37193 -13530.768,-472.80815 -13519.053,-474.3132 C -13512.416,-475.56093 -13507.381,-481.36268 -13506.232,-487.89573 C -13504.078,-495.62904 -13506.122,-504.90341 -13513.024,-509.61472 C -13522.374,-516.47388 -13534.98,-517.5179 -13546.138,-515.85724 z M -13714.175,-476.99921 C -13721.033,-483.44165 -13732.849,-483.79456 -13739.666,-477.08454 C -13748.636,-469.61296 -13753.625,-456.90528 -13750.579,-445.43848 C -13748.306,-438.6147 -13741.182,-434.51319 -13734.195,-434.53963 C -13725.52,-434.0057 -13716.783,-438.78712 -13712.897,-446.62692 C -13707.664,-455.88435 -13707.365,-468.42904 -13714.175,-476.99921 z M -13716.607,-405.47205 C -13723.46,-411.91857 -13735.274,-412.279 -13742.093,-405.57361 C -13751.065,-398.10817 -13756.055,-385.40363 -13753.013,-373.93892 C -13750.744,-367.1155 -13743.622,-363.01266 -13736.637,-363.03726 C -13727.964,-362.50076 -13719.225,-367.27421 -13715.334,-375.11022 C -13710.098,-384.3613 -13709.786,-396.91004 -13716.607,-405.47205 z M -13915.549,-383.0101 C -13923.829,-388.47585 -13936.083,-386.74491 -13942.142,-378.74254 C -13949.851,-370.07603 -13953.103,-356.94568 -13948.591,-346.0265 C -13945.641,-339.91526 -13938.681,-336.58602 -13932.051,-337.19162 C -13923.939,-337.137 -13915.485,-341.6934 -13912.822,-349.69479 C -13908.799,-360.45506 -13911.07,-372.754 -13915.549,-383.0101 z "
         id="path5686" />
      <path
         style="opacity:1;fill:#000000;fill-opacity:1;stroke:none;stroke-width:9.71899986;stroke-miterlimit:4;stroke-dasharray:none;stroke-opacity:1"
         d="M -13610.026,-1097.5975 C -13683.64,-1099.9178 -13757.253,-1102.2382 -13830.867,-1104.5585 C -13833.678,-1015.5584 -13836.49,-926.55837 -13839.301,-837.55829 C -13880.546,-842.08064 -13921.79,-846.60631 -13963.035,-851.12915 C -13988.922,-887.31686 -14014.809,-923.50435 -14040.696,-959.69196 C -14029.467,-970.0814 -14015.701,-978.28292 -14007.695,-991.71346 C -14004.76,-997.34625 -14008.959,-1003.7393 -14014.788,-1004.9515 C -14021.564,-1007.7945 -14028.892,-1004.8348 -14034.876,-1001.4807 C -14048.122,-993.70213 -14055.701,-977.05622 -14051.817,-962.03388 C -14049.826,-953.65047 -14044.418,-946.14274 -14036.981,-941.76794 C -14031.861,-937.07176 -14028.467,-930.88681 -14024.062,-925.57086 C -14006.164,-901.46034 -13989.181,-876.64291 -13970.082,-853.44514 C -13963.943,-835.4127 -13967.088,-816.05121 -13970.377,-797.78833 C -13972.531,-785.82319 -13974.314,-773.72729 -13974.423,-761.5597 C -13978.955,-738.35893 -13975.907,-713.9529 -13983.89,-691.391 C -13984.707,-686.70296 -13989.553,-687.22423 -13993.078,-687.88608 C -14019.07,-689.87486 -14045.083,-691.61236 -14071.081,-693.52207 C -14114.331,-696.61945 -14157.581,-699.71677 -14200.831,-702.81409 C -14202.632,-759.55362 -14204.433,-816.29315 -14206.233,-873.03271 C -14161.01,-869.51516 -14115.786,-865.99809 -14070.563,-862.48004 C -14069.236,-825.19156 -14067.908,-787.90308 -14066.58,-750.61462 C -14085.59,-756.44318 -14105.729,-748.03858 -14124.734,-753.81117 C -14133.025,-756.26153 -14140.798,-762.6539 -14142.163,-771.58797 C -14145.21,-787.44077 -14139.702,-803.84229 -14144.174,-819.50612 C -14144.473,-821.90995 -14147.924,-829.09411 -14148.922,-823.73382 C -14151.403,-802.94152 -14155.813,-781.61619 -14150.863,-760.82959 C -14149.088,-753.80189 -14145.691,-746.98841 -14140.229,-742.10565 C -14116.472,-737.64691 -14091.48,-735.82082 -14067.964,-742.5627 C -14063.565,-744.61193 -14056.709,-744.96216 -14055.355,-750.42774 C -14048.426,-768.31394 -14050.973,-787.84675 -14052.162,-806.47985 C -14053.042,-819.63196 -14052.961,-833.08874 -14049.105,-845.8092 C -14046.146,-859.28606 -14050.011,-875.09702 -14061.496,-883.52647 C -14070.072,-889.66767 -14081.59,-889.95652 -14091.217,-886.28337 C -14095.981,-885.07529 -14100.942,-886.50663 -14105.787,-886.35286 C -14147.634,-888.12014 -14189.496,-889.50044 -14231.362,-890.73773 C -14238.526,-821.13472 -14235.978,-751.00334 -14241.443,-681.29275 C -14240.876,-673.2417 -14233.324,-666.86537 -14225.379,-666.92202 C -14210.542,-665.25553 -14195.584,-670.95735 -14180.878,-667.05546 C -14174.023,-666.22898 -14167.086,-666.5883 -14160.202,-666.10483 C -14101.965,-664.01045 -14043.727,-661.91588 -13985.49,-659.82147 C -13989.979,-618.90096 -13994.467,-577.9804 -13998.955,-537.05981 C -14031.555,-512.57356 -14064.154,-488.08624 -14096.754,-463.6001 C -14108.303,-466.97256 -14116.007,-476.87691 -14125.749,-483.31623 C -14130.884,-487.01683 -14137.868,-490.23436 -14144.05,-487.08409 C -14148.176,-485.81767 -14150.322,-480.65112 -14146.955,-477.41862 C -14137.267,-462.58082 -14120.345,-451.96145 -14102.346,-452.09958 C -14091.304,-452.14119 -14080.65,-457.96355 -14074.095,-466.75387 C -14065.08,-474.65123 -14055.467,-481.83231 -14046.296,-489.5468 C -14029.57,-503.13768 -14012.724,-516.62131 -13994.995,-528.8949 C -13972.037,-534.76313 -13948.282,-530.05754 -13925.44,-526.0488 C -13913.554,-524.02032 -13901.535,-521.79641 -13889.447,-522.12116 C -13876.828,-524.66914 -13862.26,-523.12953 -13852.531,-513.97072 C -13844.983,-506.50652 -13843.202,-494.60968 -13846.487,-484.75768 C -13848.105,-476.97909 -13846.691,-469.00855 -13847.081,-461.14435 C -13846.603,-400.30566 -13846.126,-339.46697 -13845.65,-278.62827 C -13902.071,-272.33358 -13958.492,-266.04054 -14014.913,-259.74667 C -14014.988,-305.10157 -14015.062,-350.45647 -14015.137,-395.81137 C -13978.073,-400.09836 -13941.009,-404.38402 -13903.945,-408.67035 C -13908.247,-389.25549 -13898.275,-369.84248 -13902.52,-350.43735 C -13904.305,-341.97696 -13910.059,-333.71965 -13918.858,-331.64896 C -13934.416,-327.35213 -13951.201,-331.55198 -13966.459,-325.8539 C -13968.833,-325.36461 -13975.714,-321.35052 -13970.292,-320.78149 C -13949.368,-319.9503 -13927.756,-317.23266 -13907.427,-323.82456 C -13900.566,-326.15586 -13894.048,-330.09354 -13889.635,-335.94137 C -13887.134,-359.76678 -13887.129,-384.61173 -13895.62,-407.33723 C -13898.134,-411.7969 -13899.187,-418.98046 -13905.025,-419.95111 C -13923.753,-425.3262 -13943.29,-421.1173 -13962.089,-418.47269 C -13974.974,-416.61583 -13988.197,-415.74857 -14001.046,-418.35637 C -14014.493,-420.08086 -14029.617,-415.11956 -14037.164,-403.35388 C -14041.94,-395.40529 -14041.728,-385.1536 -14037.749,-376.9285 C -14036.01,-371.12352 -14036.887,-364.9665 -14036.271,-358.99983 C -14034.257,-317.10102 -14032.888,-275.17225 -14030.574,-233.28773 C -13960.429,-231.81979 -13890.516,-239.4771 -13820.407,-240.00146 C -13812.313,-241.95522 -13807.111,-250.4682 -13807.785,-258.55823 C -13807.378,-274.09255 -13814.608,-289.14976 -13811.829,-304.71934 C -13811.366,-312.15049 -13812.484,-319.56846 -13812.492,-327.00283 C -13815.213,-389.60994 -13817.934,-452.21701 -13820.654,-514.82416 C -13777.077,-510.04623 -13733.501,-505.26446 -13689.924,-500.48578 C -13664.267,-465.70033 -13638.61,-430.91512 -13612.953,-396.12979 C -13625.454,-389.52864 -13637.754,-381.28576 -13645.663,-369.31059 C -13648.108,-364.93338 -13646.076,-358.87042 -13640.97,-357.6993 C -13633.363,-354.36289 -13624.532,-356.13022 -13617.737,-360.50546 C -13607.912,-366.53731 -13602.238,-378.335 -13603.406,-389.77746 C -13604.218,-402.62749 -13611.899,-414.70919 -13623.071,-421.05115 C -13627.835,-425.51605 -13631.049,-431.30891 -13635.274,-436.24607 C -13651.344,-457.40303 -13666.943,-478.91988 -13683.412,-499.77179 C -13676.835,-542.3795 -13672.758,-585.31859 -13668.883,-628.24067 C -13652.785,-633.55426 -13635.455,-629.70113 -13620,-624.07139 C -13604.028,-618.36978 -13588.097,-611.58492 -13570.989,-610.31598 C -13561.58,-608.53596 -13552.474,-605.46524 -13543.154,-603.28963 C -13506.422,-593.69404 -13469.692,-584.08795 -13432.962,-574.48663 C -13441.583,-518.37378 -13450.204,-462.2609 -13458.825,-406.14804 C -13502.638,-417.89461 -13546.45,-429.64309 -13590.263,-441.38907 C -13584.74,-478.28688 -13579.218,-515.18475 -13573.695,-552.08252 C -13556.072,-542.87714 -13534.734,-547.456 -13517.107,-538.30329 C -13509.404,-534.3769 -13502.933,-526.66738 -13503.229,-517.6341 C -13503.136,-501.48782 -13511.557,-486.36875 -13510.025,-470.14732 C -13510.171,-467.72744 -13508.086,-460.0351 -13506.124,-465.12338 C -13499.872,-485.1142 -13491.616,-505.27527 -13492.681,-526.62423 C -13493.142,-533.85863 -13495.246,-541.17909 -13499.741,-546.96632 C -13522.092,-555.5976 -13546.082,-562.07464 -13570.238,-559.79602 C -13575.199,-558.53017 -13582.409,-559.38538 -13584.867,-554.00146 C -13594.939,-537.31829 -13595.969,-517.35621 -13598.314,-498.51443 C -13599.88,-485.5889 -13602.488,-472.59454 -13608.355,-460.86865 C -13613.526,-448.33905 -13612.68,-432.45288 -13603.302,-422.09397 C -13596.843,-415.36784 -13586.823,-412.92717 -13577.805,-414.63574 C -13571.976,-414.78976 -13566.473,-412.43114 -13560.773,-411.51187 C -13519.613,-402.49925 -13478.589,-392.86468 -13437.363,-384.14917 C -13417.76,-451.61536 -13406.639,-521.13744 -13389.128,-589.1247 C -13389.312,-597.73798 -13396.708,-604.76307 -13404.915,-606.21917 C -13420.44,-610.5892 -13437.484,-607.53936 -13452.322,-614.68756 C -13458.971,-616.87814 -13465.984,-617.63374 -13472.726,-619.49165 C -13536.648,-633.79643 -13600.569,-648.10038 -13664.491,-662.40546 C -13659.138,-711.22182 -13653.785,-760.03823 -13648.432,-808.85461 C -13602.473,-830.05799 -13556.513,-851.25776 -13510.554,-872.46039 C -13498.013,-863.71488 -13490.983,-849.01324 -13477.865,-840.9877 C -13473.309,-837.61771 -13466.554,-839.98916 -13464.931,-845.34202 C -13463.577,-851.43344 -13468.569,-856.58756 -13471.36,-861.53649 C -13482.083,-876.49437 -13501.492,-886.15076 -13519.929,-882.02181 C -13527.606,-880.32415 -13534.309,-875.87733 -13540.175,-870.84073 C -13575.744,-850.77779 -13613.812,-835.70086 -13649.972,-816.79303 C -13704.085,-822.72728 -13758.198,-828.66302 -13812.311,-834.59802 C -13807.161,-911.13829 -13802.012,-987.67856 -13796.862,-1064.2188 C -13740.135,-1066.2667 -13683.409,-1068.3146 -13626.682,-1070.3625 C -13630.004,-1025.1342 -13633.326,-979.90579 -13636.648,-934.67743 C -13673.93,-933.18464 -13711.212,-931.69285 -13748.494,-930.20056 C -13742.752,-949.2351 -13751.249,-969.33509 -13745.563,-988.36419 C -13743.152,-996.66645 -13736.794,-1004.4673 -13727.866,-1005.8703 C -13712.027,-1008.9874 -13695.602,-1003.5475 -13679.957,-1008.087 C -13677.553,-1008.3963 -13670.388,-1011.884 -13675.754,-1012.8575 C -13696.557,-1015.2547 -13717.902,-1019.5741 -13738.669,-1014.5387 C -13745.689,-1012.7336 -13752.488,-1009.3062 -13757.346,-1003.8218 C -13761.697,-980.04105 -13763.401,-955.03878 -13756.556,-931.55021 C -13754.487,-927.15997 -13754.11,-920.30436 -13748.638,-918.97143 C -13730.723,-912.11524 -13711.2,-914.74848 -13692.573,-916.01917 C -13679.432,-916.95513 -13665.982,-916.93709 -13653.251,-913.14067 C -13639.567,-910.18907 -13623.44,-914.29056 -13615.212,-926.22217 C -13609.52,-934.67653 -13609.276,-945.77493 -13612.845,-955.10531 C -13614.169,-959.63049 -13612.968,-964.39293 -13613.094,-969.02551 C -13611.69,-1011.8713 -13609.033,-1054.7105 -13610.026,-1097.5975 z M -13722.732,-992.703 C -13729.65,-985.15621 -13728.774,-972.92584 -13722.583,-965.21459 C -13716.438,-956.38887 -13706.103,-949.74641 -13695.097,-950.17692 C -13687.648,-950.92284 -13682.045,-957.60303 -13681.104,-964.79213 C -13679.579,-973.32412 -13683.893,-982.18883 -13691.108,-986.81704 C -13700.076,-993.33567 -13712.02,-995.55388 -13722.732,-992.703 z M -13887.156,-974.2005 C -13894.827,-980.97744 -13907.035,-979.87353 -13914.628,-973.54294 C -13923.337,-967.2385 -13929.78,-956.78351 -13929.15,-945.79192 C -13928.268,-938.36026 -13921.486,-932.88303 -13914.283,-932.07617 C -13905.727,-930.71123 -13896.948,-935.18856 -13892.456,-942.48478 C -13886.107,-951.56829 -13884.109,-963.54726 -13887.156,-974.2005 z M -13894.568,-915.14404 C -13902.587,-920.9893 -13914.908,-919.82966 -13921.334,-912.11834 C -13929.44,-903.82073 -13933.307,-890.85574 -13929.308,-879.73627 C -13926.646,-873.49399 -13919.848,-869.84314 -13913.197,-870.13851 C -13905.095,-869.70564 -13896.439,-873.86555 -13893.404,-881.73381 C -13888.884,-892.29483 -13890.573,-904.68917 -13894.568,-915.14404 z M -13668.965,-790.67493 C -13675.51,-750.64384 -13682.055,-710.61274 -13688.601,-670.58179 C -13724.436,-710.31075 -13760.272,-750.03954 -13796.107,-789.76886 C -13753.733,-790.68686 -13711.347,-790.8147 -13668.965,-790.67493 z M -13813.312,-789.3692 C -13784.431,-751.68998 -13755.551,-714.01036 -13726.671,-676.33075 C -13733.166,-671.47569 -13733.352,-662.38872 -13732.162,-655.09135 C -13731.1,-647.22289 -13728.442,-638.70002 -13731.912,-631.0784 C -13734.665,-626.2382 -13740.501,-624.70365 -13745.649,-624.23822 C -13750.565,-622.3999 -13753.834,-617.98488 -13758.124,-615.12998 C -13779.848,-597.75609 -13800.817,-579.45539 -13822.703,-562.28058 C -13819.984,-568.78987 -13818.636,-577.46713 -13824.068,-583.00332 C -13830.748,-589.69016 -13840.67,-590.76106 -13849.424,-592.8814 C -13859.206,-594.90774 -13869.883,-597.04523 -13876.968,-604.71056 C -13891.538,-618.11591 -13909.064,-628.50643 -13921.223,-644.40195 C -13922.943,-646.83954 -13928.649,-653.45704 -13922.648,-653.6953 C -13911.983,-654.33126 -13900.861,-656.31442 -13891.907,-662.50438 C -13887.369,-665.74546 -13887.903,-672.59363 -13891.569,-676.29187 C -13895.504,-682.02559 -13902.674,-680.46625 -13908.525,-680.66123 C -13917.479,-681.11347 -13927.057,-682.26696 -13934.458,-687.76551 C -13938.458,-691.6041 -13936.301,-697.75027 -13932.647,-700.9703 C -13927.237,-706.81294 -13920.288,-710.90264 -13914.416,-716.23514 C -13893.11,-733.2168 -13870.663,-748.89289 -13851.072,-767.91905 C -13841.66,-766.41766 -13837.482,-756.14742 -13828.936,-753.01048 C -13823.331,-751.34099 -13819.06,-757.08855 -13816.995,-761.52779 C -13812.422,-770.11724 -13813.74,-780.03749 -13813.312,-789.3692 z M -14088.031,-818.19708 C -14095.995,-824.51647 -14108.562,-823.31135 -14115.281,-815.70682 C -14123.531,-807.83402 -14128.182,-795.44716 -14125.022,-784.22855 C -14122.816,-777.99698 -14116.319,-774.14027 -14109.85,-774.17371 C -14100.825,-773.54145 -14091.953,-778.81814 -14087.975,-786.90436 C -14082.689,-796.4171 -14082.416,-808.76081 -14088.031,-818.19708 z M -13857.665,-788.25922 C -13887.262,-761.55828 -13916.859,-734.85739 -13946.456,-708.15649 C -13937.939,-728.43329 -13944.68,-751.47202 -13936.528,-771.83638 C -13934.888,-775.54347 -13933.112,-779.54759 -13930.079,-782.26068 C -13916.305,-789.44368 -13900.283,-788.44982 -13885.262,-787.6837 C -13876.064,-787.32717 -13866.835,-787.39963 -13857.665,-788.25922 z M -13521.102,-737.03619 C -13529.064,-743.35994 -13541.635,-742.15829 -13548.356,-734.5533 C -13556.61,-726.68108 -13561.26,-714.29109 -13558.101,-703.0703 C -13555.896,-696.83721 -13549.398,-692.97969 -13542.928,-693.01252 C -13533.902,-692.37921 -13525.028,-697.65575 -13521.051,-705.74311 C -13515.766,-715.2564 -13515.498,-727.59673 -13521.102,-737.03619 z M -13591.698,-739.935 C -13599.659,-746.25712 -13612.228,-745.05805 -13618.948,-737.45352 C -13627.198,-729.58183 -13631.848,-717.19528 -13628.688,-705.97757 C -13626.482,-699.74594 -13619.985,-695.88937 -13613.517,-695.92204 C -13604.492,-695.2884 -13595.617,-700.56073 -13591.638,-708.64675 C -13586.352,-718.15795 -13586.082,-730.50129 -13591.698,-739.935 z M -13821.446,-696.58478 C -13831.612,-696.70941 -13840.812,-688.06395 -13841.471,-677.93797 C -13843.179,-666.66233 -13839.273,-654.0202 -13829.909,-647.08145 C -13824.35,-643.5036 -13816.851,-644.4317 -13811.755,-648.41711 C -13804.231,-653.44088 -13800.446,-663.04471 -13802.25,-671.87375 C -13803.893,-682.63099 -13811.233,-692.5566 -13821.446,-696.58478 z M -13695.258,-643.06134 C -13696.081,-605.14408 -13708.57,-568.65379 -13710.289,-530.82412 C -13723.775,-523.23272 -13740.169,-524.39801 -13754.636,-528.18483 C -13770.321,-532.10703 -13785.399,-538.48584 -13801.49,-540.72413 C -13802.273,-545.20815 -13798.471,-548.72093 -13796.434,-552.3151 C -13785.669,-566.0555 -13768.699,-572.97388 -13757.582,-586.3742 C -13752.06,-592.45572 -13745.491,-597.44954 -13739.547,-603.10311 C -13724.784,-616.42282 -13710.021,-629.74225 -13695.258,-643.06134 z M -13956.733,-644.49677 C -13929.018,-613.76374 -13901.302,-583.03124 -13873.587,-552.29785 C -13905.293,-558.37306 -13936.999,-564.44885 -13968.705,-570.52435 C -13964.715,-595.18178 -13960.701,-619.83661 -13956.733,-644.49677 z M -14089.173,-633.37836 C -14096.843,-640.15504 -14109.052,-639.05188 -14116.645,-632.72068 C -14125.354,-626.41599 -14131.797,-615.96069 -14131.167,-604.96895 C -14130.284,-597.53752 -14123.503,-592.05996 -14116.299,-591.25316 C -14107.743,-589.88821 -14098.964,-594.36511 -14094.472,-601.66171 C -14088.124,-610.74603 -14086.129,-622.72456 -14089.173,-633.37836 z M -14058.182,-625.87311 C -14066.092,-619.37543 -14066.944,-607.14461 -14061.9,-598.63993 C -14057.06,-589.03828 -14047.764,-581.00763 -14036.808,-579.88364 C -14029.33,-579.57326 -14022.843,-585.39735 -14020.899,-592.38105 C -14018.189,-600.61268 -14021.214,-609.99473 -14027.705,-615.59131 C -14035.665,-623.30559 -14047.177,-627.18333 -14058.182,-625.87311 z M -13561.026,-521.23749 C -13568.459,-514.66592 -13569.979,-502.38575 -13563.833,-494.45107 C -13557.478,-484.75184 -13545.655,-478.18846 -13533.94,-479.69378 C -13527.303,-480.94129 -13522.267,-486.74318 -13521.119,-493.2766 C -13518.967,-501.00974 -13521.009,-510.28407 -13527.911,-514.9954 C -13537.261,-521.85495 -13549.867,-522.89784 -13561.026,-521.23749 z M -13729.063,-482.37946 C -13735.922,-488.82136 -13747.737,-489.17442 -13754.554,-482.46463 C -13763.524,-474.99342 -13768.512,-462.28568 -13765.467,-450.81927 C -13763.193,-443.99564 -13756.069,-439.89394 -13749.082,-439.92038 C -13740.407,-439.38709 -13731.669,-444.1682 -13727.782,-452.00688 C -13722.547,-461.26338 -13722.241,-473.81469 -13729.063,-482.37946 z M -13731.495,-410.85233 C -13738.348,-417.29865 -13750.162,-417.65996 -13756.982,-410.95432 C -13765.954,-403.48892 -13770.944,-390.78431 -13767.902,-379.3195 C -13765.632,-372.49633 -13758.51,-368.39348 -13751.525,-368.41767 C -13742.852,-367.881 -13734.115,-372.65607 -13730.224,-380.49073 C -13724.985,-389.74147 -13724.677,-402.28863 -13731.495,-410.85233 z M -13930.437,-388.39035 C -13938.717,-393.85606 -13950.97,-392.12451 -13957.029,-384.12227 C -13964.738,-375.45603 -13967.99,-362.32561 -13963.478,-351.40656 C -13960.529,-345.2955 -13953.569,-341.96628 -13946.939,-342.57193 C -13938.828,-342.51743 -13930.374,-347.07433 -13927.711,-355.07599 C -13923.688,-365.83684 -13925.965,-378.1327 -13930.437,-388.39035 z "
         id="path5688" />
      <path
         style="opacity:1;fill:url(#radialGradient5976);fill-opacity:1;stroke:#a0a0a0;stroke-width:9.71899986;stroke-miterlimit:4;stroke-dasharray:none;stroke-opacity:1"
         d="M -13620.572,-1107.3029 C -13694.186,-1109.6232 -13767.799,-1111.9436 -13841.413,-1114.2639 C -13844.224,-1025.2638 -13847.035,-936.26369 -13849.847,-847.26361 C -13891.092,-851.78575 -13932.336,-856.31163 -13973.581,-860.83447 C -13999.468,-897.02211 -14025.355,-933.20968 -14051.242,-969.39728 C -14040.012,-979.78668 -14026.247,-987.98864 -14018.241,-1001.4186 C -14015.305,-1007.0515 -14019.506,-1013.4445 -14025.334,-1014.6568 C -14032.11,-1017.4999 -14039.438,-1014.5401 -14045.422,-1011.1859 C -14058.667,-1003.4068 -14066.246,-986.76105 -14062.362,-971.73903 C -14060.371,-963.35585 -14054.963,-955.84837 -14047.527,-951.47304 C -14042.408,-946.77619 -14039.013,-940.59222 -14034.609,-935.2759 C -14016.711,-911.16479 -13999.728,-886.34746 -13980.628,-863.15051 C -13974.49,-845.11775 -13977.635,-825.75672 -13980.923,-807.49358 C -13983.077,-795.52844 -13984.86,-783.43269 -13984.969,-771.2651 C -13989.5,-748.0642 -13986.453,-723.65824 -13994.436,-701.09637 C -13995.253,-696.4083 -14000.099,-696.92959 -14003.624,-697.59144 C -14029.616,-699.58019 -14055.628,-701.31774 -14081.627,-703.22739 C -14124.877,-706.32477 -14168.127,-709.42214 -14211.377,-712.51947 C -14213.178,-769.25898 -14214.979,-825.9985 -14216.779,-882.73804 C -14171.556,-879.2205 -14126.332,-875.70345 -14081.109,-872.18542 C -14079.782,-834.89694 -14078.454,-797.60847 -14077.126,-760.32001 C -14096.135,-766.14855 -14116.275,-757.74413 -14135.279,-763.51644 C -14143.571,-765.96623 -14151.343,-772.35943 -14152.707,-781.29361 C -14155.755,-797.14631 -14150.246,-813.54825 -14154.719,-829.2118 C -14155.02,-831.61538 -14158.47,-838.7996 -14159.469,-833.43937 C -14161.952,-812.64718 -14166.358,-791.32158 -14161.409,-770.53493 C -14159.634,-763.50721 -14156.237,-756.69375 -14150.775,-751.81099 C -14127.018,-747.35318 -14102.026,-745.52557 -14078.51,-752.26808 C -14074.111,-754.31735 -14067.255,-754.66743 -14065.901,-760.13304 C -14058.973,-778.01921 -14061.518,-797.55196 -14062.707,-816.18509 C -14063.586,-829.33727 -14063.505,-842.79387 -14059.649,-855.51449 C -14056.691,-868.9915 -14060.556,-884.80293 -14072.042,-893.23199 C -14080.617,-899.3728 -14092.136,-899.66224 -14101.763,-895.98888 C -14106.527,-894.78081 -14111.488,-896.21213 -14116.333,-896.05835 C -14158.18,-897.82573 -14200.042,-899.20586 -14241.908,-900.44312 C -14249.077,-830.84037 -14246.527,-760.70886 -14251.989,-690.99808 C -14251.422,-682.94748 -14243.871,-676.57065 -14235.925,-676.62731 C -14221.089,-674.96071 -14206.13,-680.66266 -14191.424,-676.76075 C -14184.569,-675.93419 -14177.632,-676.29359 -14170.748,-675.81009 C -14112.511,-673.71565 -14054.273,-671.62125 -13996.036,-669.52686 C -14000.524,-628.60624 -14005.013,-587.68575 -14009.501,-546.76514 C -14042.101,-522.27905 -14074.7,-497.79158 -14107.3,-473.30545 C -14118.851,-476.67574 -14126.552,-486.58304 -14136.295,-493.021 C -14141.431,-496.7215 -14148.413,-499.93999 -14154.596,-496.78967 C -14158.722,-495.52315 -14160.868,-490.35654 -14157.501,-487.12402 C -14147.813,-472.28674 -14130.892,-461.6664 -14112.893,-461.80466 C -14101.851,-461.84608 -14091.196,-467.66791 -14084.641,-476.45882 C -14075.626,-484.35629 -14066.013,-491.53733 -14056.842,-499.25178 C -14040.116,-512.84268 -14023.27,-526.32657 -14005.541,-538.60025 C -13982.583,-544.46875 -13958.828,-539.76284 -13935.986,-535.75414 C -13924.1,-533.72562 -13912.081,-531.50165 -13899.993,-531.82652 C -13887.374,-534.3747 -13872.806,-532.83463 -13863.077,-523.67609 C -13855.529,-516.21185 -13853.748,-504.31502 -13857.033,-494.46301 C -13858.651,-486.68443 -13857.237,-478.71387 -13857.627,-470.84967 C -13857.15,-410.01098 -13856.672,-349.17231 -13856.196,-288.33362 C -13912.617,-282.03911 -13969.038,-275.74589 -14025.459,-269.45203 C -14025.534,-314.80693 -14025.608,-360.16182 -14025.683,-405.51672 C -13988.619,-409.8039 -13951.555,-414.08938 -13914.491,-418.3757 C -13918.795,-398.96087 -13908.821,-379.54784 -13913.066,-360.14273 C -13914.851,-351.68231 -13920.605,-343.42498 -13929.404,-341.35426 C -13944.963,-337.05723 -13961.749,-341.25788 -13977.007,-335.5584 C -13979.381,-335.06871 -13986.266,-331.05548 -13980.843,-330.48567 C -13959.917,-329.65313 -13938.305,-326.93751 -13917.975,-333.52979 C -13911.113,-335.86083 -13904.595,-339.79931 -13900.181,-345.64624 C -13897.68,-369.47177 -13897.675,-394.31686 -13906.167,-417.04247 C -13908.68,-421.50212 -13909.732,-428.68581 -13915.571,-429.65641 C -13934.298,-435.0315 -13953.835,-430.82269 -13972.634,-428.17802 C -13985.518,-426.32144 -13998.74,-425.45383 -14011.588,-428.06131 C -14025.03,-429.78643 -14040.144,-424.8287 -14047.699,-413.07614 C -14052.509,-405.08866 -14052.256,-394.78037 -14048.258,-386.51904 C -14046.592,-380.93196 -14047.434,-375.00524 -14046.838,-369.26312 C -14044.822,-327.17811 -14043.44,-285.06366 -14041.12,-242.99309 C -13970.975,-241.5253 -13901.062,-249.18255 -13830.953,-249.70678 C -13822.859,-251.66092 -13817.657,-260.17337 -13818.331,-268.26346 C -13817.924,-283.79778 -13825.155,-298.85525 -13822.374,-314.42466 C -13821.911,-321.8558 -13823.029,-329.27382 -13823.037,-336.70821 C -13825.758,-399.31533 -13828.479,-461.92242 -13831.2,-524.52954 C -13787.623,-519.75128 -13744.047,-514.96982 -13700.47,-510.19113 C -13674.813,-475.4056 -13649.156,-440.62047 -13623.499,-405.83514 C -13636,-399.23407 -13648.3,-390.99095 -13656.209,-379.01577 C -13658.654,-374.63856 -13656.622,-368.57566 -13651.516,-367.40444 C -13643.909,-364.06803 -13635.078,-365.83561 -13628.282,-370.21039 C -13618.458,-376.24226 -13612.785,-388.04076 -13613.953,-399.48291 C -13614.766,-412.33272 -13622.446,-424.41509 -13633.618,-430.75653 C -13638.382,-435.2213 -13641.596,-441.01409 -13645.821,-445.9513 C -13661.89,-467.10851 -13677.49,-488.62469 -13693.958,-509.47714 C -13687.364,-552.10136 -13683.324,-595.06287 -13679.406,-637.99928 C -13663.099,-643.31479 -13645.584,-639.28804 -13629.967,-633.56659 C -13614.215,-627.91629 -13598.472,-621.30336 -13581.598,-620.02941 C -13572.067,-618.23584 -13562.846,-615.11541 -13553.405,-612.91625 C -13516.77,-603.35131 -13480.141,-593.76495 -13443.508,-584.19202 C -13452.129,-528.07918 -13460.75,-471.96629 -13469.371,-415.85342 C -13513.184,-427.59965 -13556.996,-439.34845 -13600.809,-451.09442 C -13595.286,-487.99226 -13589.764,-524.89012 -13584.241,-561.7879 C -13566.618,-552.58236 -13545.28,-557.16137 -13527.653,-548.00849 C -13519.95,-544.08208 -13513.48,-536.37274 -13513.775,-527.33953 C -13513.683,-511.19359 -13522.102,-496.07429 -13520.57,-479.85308 C -13520.716,-477.43375 -13518.632,-469.74112 -13516.671,-474.82922 C -13510.417,-494.81965 -13502.162,-514.98085 -13503.227,-536.32963 C -13503.688,-543.56398 -13505.792,-550.88443 -13510.287,-556.67163 C -13532.638,-565.30266 -13556.628,-571.77984 -13580.784,-569.50142 C -13585.745,-568.23567 -13592.955,-569.09077 -13595.414,-563.70698 C -13605.486,-547.02423 -13606.514,-527.06139 -13608.861,-508.21972 C -13610.427,-495.29409 -13613.036,-482.30021 -13618.903,-470.57389 C -13624.072,-458.04414 -13623.228,-442.15811 -13613.849,-431.79953 C -13607.39,-425.07379 -13597.37,-422.63302 -13588.352,-424.34192 C -13582.523,-424.49602 -13577.02,-422.13732 -13571.32,-421.21813 C -13530.159,-412.2058 -13489.135,-402.57048 -13447.909,-393.85455 C -13428.306,-461.32073 -13417.185,-530.84276 -13399.674,-598.82999 C -13399.859,-607.44329 -13407.254,-614.46871 -13415.462,-615.92442 C -13430.986,-620.29437 -13448.031,-617.2446 -13462.868,-624.39276 C -13469.517,-626.58332 -13476.53,-627.33892 -13483.272,-629.19679 C -13547.194,-643.50138 -13611.115,-657.80568 -13675.037,-672.11078 C -13669.684,-720.92715 -13664.331,-769.74355 -13658.978,-818.55994 C -13613.019,-839.7636 -13567.059,-860.96313 -13521.1,-882.16577 C -13508.56,-873.42 -13501.529,-858.71931 -13488.412,-850.69311 C -13483.856,-847.32365 -13477.1,-849.69421 -13475.477,-855.04716 C -13474.123,-861.13882 -13479.116,-866.29246 -13481.907,-871.24147 C -13492.63,-886.19899 -13512.038,-895.856 -13530.475,-891.72702 C -13538.153,-890.02942 -13544.855,-885.58046 -13550.722,-880.54469 C -13586.291,-860.48306 -13624.358,-845.40414 -13660.518,-826.49841 C -13714.631,-832.43234 -13768.744,-838.36841 -13822.857,-844.30341 C -13817.708,-920.84366 -13812.558,-997.38389 -13807.408,-1073.9241 C -13750.681,-1075.972 -13693.955,-1078.0199 -13637.228,-1080.0679 C -13640.55,-1034.8396 -13643.872,-989.61117 -13647.194,-944.38281 C -13684.476,-942.89002 -13721.758,-941.39823 -13759.04,-939.90594 C -13753.299,-958.94067 -13761.794,-979.04052 -13756.109,-998.06966 C -13753.698,-1006.3722 -13747.339,-1014.1725 -13738.412,-1015.5756 C -13722.572,-1018.6928 -13706.147,-1013.2527 -13690.503,-1017.7924 C -13688.099,-1018.102 -13680.935,-1021.5895 -13686.3,-1022.563 C -13707.103,-1024.9601 -13728.448,-1029.2791 -13749.215,-1024.244 C -13756.235,-1022.439 -13763.034,-1019.0122 -13767.892,-1013.5271 C -13772.244,-989.74649 -13773.945,-964.74452 -13767.102,-941.25579 C -13765.033,-936.86547 -13764.657,-930.00922 -13759.185,-928.67699 C -13741.269,-921.8213 -13721.747,-924.45339 -13703.119,-925.7247 C -13689.97,-926.66257 -13676.513,-926.63977 -13663.775,-922.84164 C -13650.286,-919.94439 -13634.492,-923.87748 -13626.115,-935.401 C -13620.003,-944.01285 -13619.777,-955.54278 -13623.497,-965.1619 C -13624.649,-969.65367 -13623.511,-974.34116 -13623.632,-978.91938 C -13622.23,-1021.7023 -13619.58,-1064.4787 -13620.572,-1107.3029 z M -13733.278,-1002.4083 C -13740.196,-994.86159 -13739.32,-982.63118 -13733.129,-974.91991 C -13726.984,-966.09419 -13716.649,-959.45203 -13705.643,-959.88225 C -13698.194,-960.62817 -13692.591,-967.30855 -13691.649,-974.4975 C -13690.125,-983.02955 -13694.439,-991.8941 -13701.654,-996.52226 C -13710.622,-1003.0407 -13722.566,-1005.2588 -13733.278,-1002.4083 z M -13897.702,-983.90588 C -13905.372,-990.68271 -13917.581,-989.57895 -13925.174,-983.24838 C -13933.883,-976.94403 -13940.326,-966.48895 -13939.696,-955.49742 C -13938.813,-948.06607 -13932.033,-942.58831 -13924.829,-941.78156 C -13916.273,-940.41661 -13907.494,-944.8936 -13903.002,-952.19021 C -13896.654,-961.27414 -13894.657,-973.25228 -13897.702,-983.90588 z M -13905.114,-924.84937 C -13913.132,-930.69452 -13925.454,-929.53567 -13931.88,-921.82402 C -13939.986,-913.52624 -13943.853,-900.56169 -13939.854,-889.44225 C -13937.192,-883.20025 -13930.395,-879.54895 -13923.744,-879.84445 C -13915.643,-879.41188 -13906.985,-883.57155 -13903.951,-891.44015 C -13899.434,-902.00132 -13901.124,-914.39333 -13905.114,-924.84937 z M -13679.511,-800.38025 C -13686.056,-760.34918 -13692.602,-720.31822 -13699.147,-680.28711 C -13734.982,-720.01685 -13770.818,-759.74486 -13806.653,-799.47418 C -13764.279,-800.3922 -13721.893,-800.51986 -13679.511,-800.38025 z M -13823.858,-799.07458 C -13794.978,-761.39503 -13766.097,-723.71593 -13737.217,-686.03607 C -13743.711,-681.1801 -13743.897,-672.09368 -13742.706,-664.79633 C -13741.644,-656.92804 -13738.987,-648.40512 -13742.458,-640.78375 C -13745.211,-635.94347 -13751.047,-634.40914 -13756.195,-633.94329 C -13761.111,-632.10505 -13764.38,-627.69005 -13768.67,-624.83509 C -13790.394,-607.46075 -13811.363,-589.1608 -13833.249,-571.9859 C -13830.53,-578.49542 -13829.184,-587.17231 -13834.614,-592.70878 C -13841.294,-599.39609 -13851.217,-600.46658 -13859.97,-602.58701 C -13869.752,-604.61335 -13880.429,-606.75078 -13887.514,-614.41595 C -13902.084,-627.82072 -13919.609,-638.21223 -13931.768,-654.10705 C -13933.49,-656.54397 -13939.196,-663.16202 -13933.194,-663.4005 C -13922.529,-664.03677 -13911.407,-666.01983 -13902.454,-672.2099 C -13897.916,-675.45079 -13898.448,-682.29888 -13902.115,-685.99716 C -13906.05,-691.73079 -13913.22,-690.17165 -13919.071,-690.36663 C -13928.025,-690.81885 -13937.602,-691.97182 -13945.003,-697.47067 C -13949.003,-701.30911 -13946.846,-707.45522 -13943.192,-710.67506 C -13937.782,-716.51766 -13930.834,-720.60784 -13924.962,-725.93999 C -13903.656,-742.92188 -13881.21,-758.59904 -13861.618,-777.62424 C -13852.205,-776.12433 -13848.027,-765.85314 -13839.481,-762.71588 C -13833.876,-761.04555 -13829.605,-766.79321 -13827.54,-771.23237 C -13822.969,-779.82169 -13824.275,-789.74208 -13823.858,-799.07458 z M -14098.577,-827.9024 C -14106.54,-834.22274 -14119.107,-833.01554 -14125.826,-825.41258 C -14134.077,-817.54028 -14138.728,-805.15289 -14135.568,-793.93411 C -14133.362,-787.70259 -14126.865,-783.84569 -14120.396,-783.8791 C -14111.371,-783.24683 -14102.499,-788.52349 -14098.521,-796.60976 C -14093.235,-806.12263 -14092.963,-818.46566 -14098.577,-827.9024 z M -13868.211,-797.9646 C -13897.808,-771.26373 -13927.405,-744.5628 -13957.002,-717.86188 C -13948.486,-738.139 -13955.225,-761.1772 -13947.074,-781.5417 C -13945.434,-785.24882 -13943.658,-789.25296 -13940.625,-791.96604 C -13926.851,-799.14907 -13910.829,-798.15512 -13895.808,-797.38905 C -13886.61,-797.03252 -13877.382,-797.10506 -13868.211,-797.9646 z M -13531.648,-746.74158 C -13539.611,-753.06526 -13552.181,-751.86363 -13558.902,-744.25852 C -13567.155,-736.38604 -13571.807,-723.99679 -13568.648,-712.77599 C -13566.436,-706.52012 -13559.904,-702.6712 -13553.417,-702.71213 C -13544.221,-702.08732 -13535.24,-707.61355 -13531.34,-715.90902 C -13526.299,-725.35427 -13526.119,-737.45906 -13531.648,-746.74158 z M -13602.244,-749.64038 C -13610.205,-755.96251 -13622.773,-754.76277 -13629.493,-747.15888 C -13637.744,-739.28756 -13642.393,-726.90083 -13639.234,-715.68315 C -13637.028,-709.45157 -13630.531,-705.5949 -13624.063,-705.62752 C -13615.038,-704.9938 -13606.163,-710.26628 -13602.184,-718.35235 C -13596.898,-727.86362 -13596.629,-740.20627 -13602.244,-749.64038 z M -13831.992,-706.2901 C -13842.158,-706.41427 -13851.358,-697.76911 -13852.018,-687.64344 C -13853.724,-676.36788 -13849.819,-663.72574 -13840.455,-656.78712 C -13834.896,-653.20951 -13827.397,-654.13658 -13822.302,-658.12261 C -13814.778,-663.14708 -13810.993,-672.75043 -13812.797,-681.57918 C -13814.44,-692.33615 -13821.779,-702.26072 -13831.992,-706.2901 z M -13705.804,-652.76666 C -13706.627,-614.84949 -13719.113,-578.35882 -13720.834,-540.52943 C -13734.321,-532.93797 -13750.714,-534.10323 -13765.182,-537.8901 C -13780.867,-541.8123 -13795.945,-548.19123 -13812.036,-550.42951 C -13812.819,-554.91357 -13809.017,-558.42621 -13806.98,-562.02053 C -13796.215,-575.76093 -13779.246,-582.67965 -13768.128,-596.07946 C -13762.606,-602.16112 -13756.037,-607.15463 -13750.093,-612.80833 C -13735.33,-626.12806 -13720.568,-639.44871 -13705.804,-652.76666 z M -13967.279,-654.20209 C -13939.564,-623.469 -13911.848,-592.73653 -13884.133,-562.00317 C -13915.839,-568.07804 -13947.545,-574.15422 -13979.251,-580.22974 C -13975.26,-604.88704 -13971.27,-629.5453 -13967.279,-654.20209 z M -14099.719,-643.08374 C -14107.389,-649.86014 -14119.598,-648.75749 -14127.191,-642.42602 C -14135.899,-636.1208 -14142.341,-625.66599 -14141.713,-614.67477 C -14140.829,-607.24378 -14134.049,-601.76564 -14126.845,-600.95886 C -14118.289,-599.59359 -14109.51,-604.07111 -14105.019,-611.36758 C -14098.67,-620.4514 -14096.675,-632.4302 -14099.719,-643.08374 z M -14068.728,-635.57849 C -14076.638,-629.08088 -14077.49,-616.85001 -14072.447,-608.34529 C -14067.606,-598.7436 -14058.31,-590.71308 -14047.354,-589.58902 C -14039.876,-589.27892 -14033.388,-595.10264 -14031.444,-602.0865 C -14028.734,-610.31835 -14031.76,-619.70027 -14038.251,-625.29692 C -14046.211,-633.01112 -14057.724,-636.88903 -14068.728,-635.57849 z M -13571.572,-530.94287 C -13579.005,-524.37168 -13580.525,-512.09149 -13574.38,-504.15668 C -13568.024,-494.4579 -13556.202,-487.89377 -13544.487,-489.39878 C -13537.85,-490.64599 -13532.814,-496.44772 -13531.666,-502.9813 C -13529.513,-510.7142 -13531.555,-519.98864 -13538.457,-524.70012 C -13547.807,-531.55998 -13560.413,-532.60346 -13571.572,-530.94287 z M -13739.609,-492.08484 C -13746.468,-498.52756 -13758.284,-498.8799 -13765.101,-492.17067 C -13774.071,-484.69954 -13779.06,-471.9912 -13776.013,-460.52467 C -13773.74,-453.7016 -13766.617,-449.59883 -13759.63,-449.62554 C -13750.955,-449.09155 -13742.218,-453.87354 -13738.332,-461.71254 C -13733.097,-470.9687 -13732.79,-483.51811 -13739.609,-492.08484 z M -13742.041,-420.55768 C -13748.894,-427.0039 -13760.708,-427.36534 -13767.528,-420.65964 C -13776.5,-413.19451 -13781.491,-400.48983 -13778.448,-389.02502 C -13776.178,-382.20174 -13769.056,-378.09905 -13762.071,-378.12319 C -13753.398,-377.58635 -13744.66,-382.36067 -13740.769,-390.19592 C -13735.531,-399.4472 -13735.226,-411.99279 -13742.041,-420.55768 z M -13940.983,-398.09573 C -13949.264,-403.56128 -13961.517,-401.83032 -13967.575,-393.82823 C -13975.285,-385.16196 -13978.538,-372.03224 -13974.026,-361.11289 C -13971.078,-355.00093 -13964.116,-351.6721 -13957.487,-352.27751 C -13949.375,-352.223 -13940.92,-356.77881 -13938.255,-364.77986 C -13934.233,-375.53928 -13936.497,-387.84226 -13940.983,-398.09573 z "
         id="path5690" />
    </g>
  </g>
</svg>
